<svg id="Layer_1" data-name="Layer 1" xmlns="http://www.w3.org/2000/svg" viewBox="0 0 75.95 87.47"><defs><style>.cls-1,.cls-2{fill:none;}.cls-2,.cls-3{stroke:#5873b8;stroke-miterlimit:10;}.cls-2{stroke-width:2px;}.cls-3{fill:#5873b8;}.cls-4{fill:#46ec9c;}</style></defs><title>b2b</title><path class="cls-1" d="M413.8,104.13c-.91-6-1.67-8.25-10-9.21-3.14-.36-11.7-1.24-14.88-3.06S386.27,81,386.27,81H368.9s.51,9.09-2.68,10.91-11.73,2.7-14.88,3.06c-8.3,1-9.06,3.23-10,9.21a93.57,93.57,0,0,0-.76,11.21h73.94A93.38,93.38,0,0,0,413.8,104.13Z" transform="translate(-339.61 -27.88)"/><path class="cls-2" d="M397.15,58.25h-.39c.16-1.33.33-2.64.49-3.88.84-6.42,2.72-25.17-19.67-25.17S357.08,48,357.92,54.38c.16,1.24.33,2.55.49,3.88H358c-3.41-2.52-3.69,4.06-2.27,6.31a13.73,13.73,0,0,1,1.91,4.11c.52,1.51,1.4,1.71,2.12,1.55.09.89.17,1.68.23,2.3.31,3.46,8.63,10.39,10.51,12.56s4.71,1.24,5.65,1.2l1.41-.07,1.41.07c.94,0,3.89.83,5.66-1.2s10.2-9.1,10.51-12.56c.06-.62.14-1.4.23-2.3.73.16,1.6,0,2.12-1.55a13.73,13.73,0,0,1,1.91-4.11C400.84,62.32,400.56,55.73,397.15,58.25Z" transform="translate(-339.61 -27.88)"/><path class="cls-3" d="M397.58,48.63a44,44,0,0,0-2.17-9.44,3.5,3.5,0,0,1,.77-3.43,27.78,27.78,0,0,1-4.46-2.88c-2.76-2.09-7.53-1.79-7.53-1.79A4.15,4.15,0,0,0,387,29.45c-1.23.6-8.91-1.22-13.05-1.07s-7.37,4.18-7.37,4.18-4.06-.59-6.83,3.84c-4.52,7.22-2,21.61-2,21.61,2.43,2.19,2.53,6.12,2.53,6.12a24,24,0,0,1,.9-7c1.35-4.83,6.86-7.47,6.86-7.47-.46,1.34-4.4,4.16-4.4,4.16,1.62-.11,7.55-3,9.5-4l1.05-.55a2.62,2.62,0,0,1-.59.64,24.07,24.07,0,0,1-3.28,2.19,22.07,22.07,0,0,0,5.59-1.92,25.24,25.24,0,0,0,4.73-2.71c-.8,1.34-3,2.51-4,3l.37.07a18.89,18.89,0,0,0,7.5-3.69,4.71,4.71,0,0,1-1.64,2.49,12.73,12.73,0,0,0,4.72-2.6c1.68-1.63,2.47-1.37,3.32-.89,1.82,1,2.08,4.15,2.47,6.48a52.25,52.25,0,0,1,.5,11.79c2-6,3.07-5.87,3.07-5.87A30.09,30.09,0,0,0,397.58,48.63Z" transform="translate(-339.61 -27.88)"/><path class="cls-2" d="M413.8,102.13c-.91-6-1.67-8.25-10-9.21-3.14-.36-11.7-1.24-14.88-3.06a4.62,4.62,0,0,1-1.81-2.62l-9.54,2-9.57-2h0a4.63,4.63,0,0,1-1.81,2.63c-3.18,1.82-11.73,2.7-14.88,3.06-8.3,1-9.06,3.23-10,9.21a93.57,93.57,0,0,0-.76,11.21h73.94A93.38,93.38,0,0,0,413.8,102.13Z" transform="translate(-339.61 -27.88)"/><path class="cls-4" d="M387.67,86.24l-10,2a11.85,11.85,0,0,0,.05,2l6.75,5.45,4-7.75A12.62,12.62,0,0,1,387.67,86.24Z" transform="translate(-339.61 -27.88)"/><path class="cls-4" d="M367.34,86.11h0a15,15,0,0,1-.87,1.79,0,0,0,0,0,0,0l4,7.72h0l7-5.43s0-2,0-2l-10-2.14Z" transform="translate(-339.61 -27.88)"/></svg>