<svg id="Layer_1" data-name="Layer 1" xmlns="http://www.w3.org/2000/svg" viewBox="0 0 75.95 90.24"><defs><style>.cls-1,.cls-2{fill:none;stroke:#5873b8;stroke-miterlimit:10;}.cls-1{stroke-width:2px;}.cls-3{fill:#5873b8;}.cls-4{fill:#46ec9c;}</style></defs><title>b2b_prodovet</title><path class="cls-1" d="M313,418c-.-0.67-8.25-10-9.21-3.14-.36-11.7-1.25-14.88-3.06s-2.77-1.52-2.77-1.52l-8.91,1.25-8.18-1s.31-.55-2.88,1.27-11.74,2.7-14.88,3.06c-8.3,1-9.06,3.22-10,9.21a93.55,93.55,0,0,0-.76,11.21h73.94A93.65,93.65,0,0,0,313,418Z" transform="translate(-238.85 -340.01)"/><path class="cls-2" d="M296.39,372.16H296c.16-1.33.33-2.64.49-3.88.84-6.42,2.72-25.17-19.67-25.17s-20.51,18.75-19.67,25.17c.16,1.24.33,2.55.49,3.88h-.39c-3.41-2.52-3.69,4.06-2.27,6.31a13.72,13.72,0,0,1,1.91,4.12c.53,1.51,1.39,1.71,2.12,1.55.09.89.17,1.68.23,2.3.31,3.46,8.63,10.39,10.51,12.56s4.71,1.24,5.66,1.19l1.41-.07,1.41.07c.94,0,3.89.83,5.65-1.19s10.2-9.1,10.51-12.56c.06-.62.13-1.41.23-2.3.72.17,1.6,0,2.12-1.55a13.72,13.72,0,0,1,1.91-4.12C300.08,376.22,299.79,369.64,296.39,372.16Z" transform="translate(-238.85 -340.01)"/><path class="cls-2" d="M295.62,370c0,1.14-1.13,10.1-1.48,13a18.92,18.92,0,0,1-4.43,10.22c-1.14,1.25-5.66,6.05-7.26,6.62s-5.64.29-5.64.29-3.56.63-5.16.06-6.2-5.91-7.33-7.16-4.67-5.37-4.84-10c-.1-2.88-1.48-11.82-1.48-13,0-.75-.37-.48-.59.39l.22,1.73s1.17,12,1.37,12c.09.89.17,1.68.23,2.3a3.68,3.68,0,0,0,.27,1c.42.66,1.07,1.72,1.9,3l0,.05c2.69,3.32,7,7.05,8.31,8.55,1.77,2,4.71,1.24,5.66,1.19l1.41-.07,1.41.07c.94,0,3.89.83,5.65-1.19,1.3-1.49,5.65-5.25,8.33-8.57.83-1.28,1.49-2.35,1.92-3a3.63,3.63,0,0,0,.27-1c.06-.62.13-1.41.23-2.3.2,0,1.37-12,1.37-12l.21-1.73C296,369.55,295.62,369.28,295.62,370Z" transform="translate(-238.85 -340.01)"/><path class="cls-3" d="M296.21,349.73c-5.4-10.6-19.39-9.7-19.39-9.7s-14-.91-19.39,9.7c-3.8,7.45-1.23,15,.22,22.43L258,370s.79-8.64,6.13-12.27,4.76,0,12.67,0,7.32-3.64,12.67,0S295.62,370,295.62,370l.38,2.13C297.44,364.69,300,357.18,296.21,349.73Z" transform="translate(-238.85 -340.01)"/><path class="cls-3" d="M313,413c-.91-6-1.67-8.25-10-9.21-3.14-.36-11.69-1.25-14.88-3.06a4.61,4.61,0,0,1-1.81-2.62l-9.54,2-9.57-2h0a4.63,4.63,0,0,1-1.81,2.62c-3.18,1.82-11.73,2.7-14.88,3.06-8.3,1-9.06,3.22-10,9.21a94,94,0,0,0-.76,11.21h73.94A93.91,93.91,0,0,0,313,413Z" transform="translate(-238.85 -340.01)"/><path class="cls-4" d="M286.4,398.14l-9.57,2,6.6,7.44,3.75-7.75A13.11,13.11,0,0,1,286.4,398.14Z" transform="translate(-238.85 -340.01)"/><path class="cls-4" d="M267.27,398.14h0a13.22,13.22,0,0,1-.78,1.68l3.74,7.74h0l6.6-7.44-9.57-2Z" transform="translate(-238.85 -340.01)"/><polygon class="cls-4" points="37.99 60.12 37.99 66.39 35.07 63.41 37.99 60.12"/><polygon class="cls-4" points="37.06 65.44 34.16 80.56 35.62 84.24 37.97 84.24 37.99 66.39 37.06 65.44"/><polygon class="cls-4" points="37.99 60.12 37.99 66.39 40.91 63.41 37.99 60.12"/><polygon class="cls-4" points="38.92 65.44 41.83 80.56 40.36 84.24 38.01 84.24 37.99 66.39 38.92 65.44"/></svg>