<svg id="Layer_1" data-name="Layer 1" xmlns="http://www.w3.org/2000/svg" viewBox="0 0 77.02 88.14"><defs><style>.cls-1{fill:none;}.cls-1,.cls-2{stroke:#5873b8;stroke-miterlimit:10;stroke-width:2px;}.cls-2{fill:#fff;}.cls-3{fill:#5873b8;}.cls-4{fill:#46ec9c;}</style></defs><title>fit_tovar</title><path class="cls-1" d="M109.38,209.22c-.91-6-2.42-8.25-10.73-9.21a70.83,70.83,0,0,1-12.1-2.29C85,197.21,85,186,85,186H60.06s-.52,11.16-1.78,12c-3.07,2-9,1.63-12.1,2-8.3,1-10.35,3.23-11.26,9.21-.73,4.8.53,11.21.53,11.21h73.94A51.72,51.72,0,0,0,109.38,209.22Z" transform="translate(-33.69 -133.29)"/><path class="cls-2" d="M92,163.34h-.38c.16-1.33.33-2.64.49-3.88.84-6.42,1.75-25.17-19.67-25.17C53,134.29,51.91,153,52.75,159.46c.16,1.24.33,2.55.49,3.88h-.39c-3.4-2.52-3.69,4.06-2.27,6.31a13.68,13.68,0,0,1,1.91,4.12c.53,1.51,1.4,1.71,2.12,1.55.09.89.17,1.68.23,2.3.31,3.46,8.63,10.39,10.51,12.56s4.71,1.24,5.65,1.19l1.41-.07,1.41.07c.94,0,3.89.83,5.66-1.19s10.2-9.1,10.51-12.56c.06-.62.13-1.4.23-2.3.72.16,1.6,0,2.12-1.55a13.77,13.77,0,0,1,1.91-4.12C95.67,167.4,95.39,160.82,92,163.34Z" transform="translate(-33.69 -133.29)"/><path class="cls-3" d="M89,173.75c-3,9.08-9.05,6.62-12,5.47a6.8,6.8,0,0,0-9,0c-3,1.15-9.07,3.61-12-5.47,0,0-2-8.15-2.21-7.41l.22,1.73s.42,5,.73,7.24c.09.89.15,1.68.23,2.3A10.83,10.83,0,0,0,57,183.42c2.68,3.32,6.12,7.07,7.42,8.57,1.77,2,5.62,2.15,6.56,2.1l1.41-.07,1.41.07c.94,0,4.8-.08,6.56-2.1,1.3-1.49,4.74-5.25,7.42-8.57A10.81,10.81,0,0,0,90,177.61c.08-.62.13-1.4.23-2.3.32-2.21.73-7.24.73-7.24l.22-1.73C91,165.59,89,173.75,89,173.75ZM76.67,185.53a10.12,10.12,0,0,1-2.41.37,1.66,1.66,0,0,1-.93-.36c-.78-.76-.91-.63-.91-.63s-.13-.12-.91.63a1.65,1.65,0,0,1-.93.36,10.14,10.14,0,0,1-2.42-.37,2.17,2.17,0,0,1-1.26-3c1.36-2.11,5.51-2.28,5.51-2.28s4.15.17,5.51,2.28A2.17,2.17,0,0,1,76.67,185.53Z" transform="translate(-33.69 -133.29)"/><path class="cls-4" d="M86.45,198.21h0s-3.27,7.26-14,7.26-13.64-6.54-13.64-6.54l-.27-.5c-3.92,1.86-9.88,1.78-12.33,2.07l1.44,19.93h49.6l1.41-20A92.1,92.1,0,0,1,86.45,198.21Z" transform="translate(-33.69 -133.29)"/></svg>