<svg id="Layer_1" data-name="Layer 1" xmlns="http://www.w3.org/2000/svg" xmlns:xlink="http://www.w3.org/1999/xlink" viewBox="0 0 371.48 153.26"><defs><style>.cls-1{fill:none;}.cls-2{clip-path:url(#clip-path);}.cls-3{fill:#5fb0e5;}.cls-4{fill:#0686d8;}.cls-5{fill:#9ecfef;}.cls-6{fill:#d2e9f7;}.cls-7{fill:#fff;}.cls-8{fill:#e4f2fa;}.cls-9{opacity:0.3;}.cls-10{clip-path:url(#clip-path-3);}.cls-11{fill:#03436c;}.cls-12{clip-path:url(#clip-path-4);}.cls-13{fill:#edf6fc;}.cls-14{clip-path:url(#clip-path-5);}.cls-15{clip-path:url(#clip-path-6);}.cls-16{clip-path:url(#clip-path-7);}.cls-17{clip-path:url(#clip-path-8);}.cls-18{clip-path:url(#clip-path-9);}.cls-19{clip-path:url(#clip-path-10);}.cls-20{fill:#fffffe;}.cls-21{clip-path:url(#clip-path-11);}.cls-22{clip-path:url(#clip-path-12);}</style><clipPath id="clip-path" transform="translate(0 0)"><rect class="cls-1" width="371.48" height="153.26"/></clipPath><clipPath id="clip-path-3" transform="translate(0 0)"><rect class="cls-1" x="64.36" y="101.54" width="69.51" height="3.14"/></clipPath><clipPath id="clip-path-4" transform="translate(0 0)"><rect class="cls-1" x="84.78" y="104.74" width="7.2" height="47.66"/></clipPath><clipPath id="clip-path-5" transform="translate(0 0)"><rect class="cls-1" x="87.17" y="86.32" width="40.38" height="3.77"/></clipPath><clipPath id="clip-path-6" transform="translate(0 0)"><rect class="cls-1" x="90.53" y="90.08" width="3.7" height="62.42"/></clipPath><clipPath id="clip-path-7" transform="translate(0 0)"><rect class="cls-1" x="120.38" y="90.08" width="3.84" height="62.42"/></clipPath><clipPath id="clip-path-8" transform="translate(0 0)"><rect class="cls-1" x="119.92" y="78.25" width="31.1" height="74.9"/></clipPath><clipPath id="clip-path-9" transform="translate(0 0)"><rect class="cls-1" x="228.41" y="69.32" width="12.83" height="83.94"/></clipPath><clipPath id="clip-path-10" transform="translate(0 0)"><rect class="cls-1" x="272.65" y="94.91" width="9.79" height="57.59"/></clipPath><clipPath id="clip-path-11" transform="translate(0 0)"><rect class="cls-1" x="306.93" y="123.66" width="15.59" height="28.57"/></clipPath><clipPath id="clip-path-12" transform="translate(0 0)"><rect class="cls-1" x="40.44" y="119.91" width="5.58" height="33.35"/></clipPath></defs><title>footer_bg</title><g class="cls-2"><g class="cls-2"><path class="cls-3" d="M220.51,45.77,216,41.06a0,0,0,0,1,0-.06l5.31.37-.73,4.38a0,0,0,0,1-.06,0" transform="translate(0 0)"/><path class="cls-4" d="M220.32,46.63l-.35-.35h0l-4.91-5.08.43-1H216l6.14.43-.95,5.64Zm-2.52-4.75,2.26,2.34.36-2.16Z" transform="translate(0 0)"/><path class="cls-5" d="M221.3,29.18l-5.24,6.05a.09.09,0,0,0,.08.14l6.35-1Z" transform="translate(0 0)"/><path class="cls-4" d="M215.73,36.2l-.34-.5a.84.84,0,0,1,.1-1L221,28.38l.92.22.12.47L223.4,35Zm5.17-5.41-3.08,3.55,3.75-.61Z" transform="translate(0 0)"/><path class="cls-3" d="M227.78,29.71l3.76,3.92a.08.08,0,0,1-.06.14l-3.76.21a.08.08,0,0,1-.09-.08V29.76a.08.08,0,0,1,.15-.06" transform="translate(0 0)"/><path class="cls-4" d="M227.45,34.74l-.3-.24a.84.84,0,0,1-.26-.61V29.25l.52-.27a.83.83,0,0,1,.91.2l4.09,4.26-.16.54a.84.84,0,0,1-.73.53Zm.94-3.33v1.77L230,33.1Z" transform="translate(0 0)"/><path class="cls-5" d="M227.78,29.88l-.14,9.06a.08.08,0,0,1,0,.07l-7,6.8a.08.08,0,0,1-.12-.07l-.71-5.31a.08.08,0,0,1,0-.06l7.9-10.56a.08.08,0,0,1,.13.06" transform="translate(0 0)"/><path class="cls-4" d="M220.6,46.69l-.48-.21a.83.83,0,0,1-.44-.73l-.76-5.6.25-.25,8-10.65.37-.31.53.19a.83.83,0,0,1,.48.76h0l-.15,9.45-.27.21L221,46.44Zm-.1-6.05.5,3.71,5.89-5.69.11-6.71Z" transform="translate(0 0)"/><path class="cls-3" d="M226.91,39.52l-5.29-10.43a.17.17,0,0,0-.32.09l1,14.77Z" transform="translate(0 0)"/><path class="cls-4" d="M221.68,45.61l-1.13-16.38a.92.92,0,0,1,1.74-.48l5.54,10.92ZM222.24,32,223,42.29l3-2.93Z" transform="translate(0 0)"/><path class="cls-3" d="M64,68l-4.55-4.71a0,0,0,0,1,0-.06l5.31.37L64,67.94A0,0,0,0,1,64,68" transform="translate(0 0)"/><path class="cls-4" d="M63.8,68.82l-.36-.34L58.53,63.4l.43-1h.54l6.14.43-.94,5.64Zm-2.53-4.75,2.26,2.34.36-2.16Z" transform="translate(0 0)"/><path class="cls-5" d="M64.77,51.37l-5.24,6.05a.08.08,0,0,0,.08.14l6.35-1Z" transform="translate(0 0)"/><path class="cls-4" d="M59.21,58.39l-.34-.5a.84.84,0,0,1,.1-1l5.51-6.36.92.22.12.47,1.35,5.89ZM64.37,53l-3.08,3.55L65,55.92Z" transform="translate(0 0)"/><path class="cls-3" d="M71.25,51.9,75,55.82A.08.08,0,0,1,75,56l-3.76.21a.08.08,0,0,1-.09-.08V52a.08.08,0,0,1,.15-.06" transform="translate(0 0)"/><path class="cls-4" d="M70.92,56.94l-.3-.24a.84.84,0,0,1-.26-.61V51.45l.52-.27a.83.83,0,0,1,.91.19h0l4.09,4.26-.15.53a.84.84,0,0,1-.72.53Zm.94-3.33v1.77l1.61-.09Z" transform="translate(0 0)"/><path class="cls-5" d="M71.25,52.08l-.14,9.06a.08.08,0,0,1,0,.07L64,68a.08.08,0,0,1-.12-.07l-.71-5.31a.08.08,0,0,1,0-.06L71.12,52a.08.08,0,0,1,.13.06" transform="translate(0 0)"/><path class="cls-4" d="M64.07,68.88l-.48-.21a.83.83,0,0,1-.44-.73l-.76-5.62.26-.24,8-10.63.37-.32.53.19a.83.83,0,0,1,.48.76h0l-.15,9.46-.27.21-7.14,6.87ZM64,62.83l.5,3.71,5.89-5.69.11-6.71Z" transform="translate(0 0)"/><path class="cls-3" d="M70.38,61.71,65.09,51.28a.17.17,0,0,0-.32.09l1,14.77Z" transform="translate(0 0)"/><path class="cls-4" d="M65.15,67.8,64,51.42a.92.92,0,0,1,1.74-.48L71.3,61.87Zm.57-13.64.71,10.32,3-2.93Z" transform="translate(0 0)"/><path class="cls-6" d="M196.81,17.89C198.56,19.64,198,23,198,23s-3.41.57-5.16-1.17-1.17-5.16-1.17-5.16,3.41-.57,5.16,1.17" transform="translate(0 0)"/><path class="cls-4" d="M196.7,23.89a6.26,6.26,0,0,1-4.41-1.48c-2-2-1.41-5.66-1.38-5.82l.09-.52.53-.09c.16,0,3.82-.62,5.82,1.38s1.41,5.66,1.38,5.82l-.09.53-.52.09a9.31,9.31,0,0,1-1.41.1m-4.37-6.49c-.07.95,0,2.88,1,3.95s3,1.09,4,1c.07-.95,0-2.88-1-3.95s-3-1.09-3.95-1" transform="translate(0 0)"/><path class="cls-6" d="M172.88,17.89c-1.75,1.75-1.17,5.16-1.17,5.16s3.41.57,5.16-1.17S178,16.71,178,16.71s-3.41-.57-5.16,1.17" transform="translate(0 0)"/><path class="cls-4" d="M173,23.89a9.17,9.17,0,0,1-1.41-.1l-.53-.09-.09-.52c0-.16-.62-3.82,1.38-5.82S178,15.95,178.17,16l.53.09.09.53c0,.16.62,3.82-1.38,5.82A6.26,6.26,0,0,1,173,23.89m-.6-1.52c.95.07,2.88,0,3.95-1s1.1-2.86,1-4c-.95-.07-2.88,0-4,1s-1.09,3-1,3.95" transform="translate(0 0)"/><path class="cls-7" d="M193.29,18.51a.91.91,0,1,1-1.82,0v-.88a.91.91,0,1,1,1.82,0Z" transform="translate(0 0)"/><path class="cls-4" d="M192.39,20.16a1.66,1.66,0,0,1-1.66-1.66v-.88a1.66,1.66,0,1,1,3.32,0v.88a1.66,1.66,0,0,1-1.66,1.66m0-2.7a.16.16,0,0,0-.16.16v.88c0,.17.32.17.32,0v-.88a.16.16,0,0,0-.16-.16" transform="translate(0 0)"/><path class="cls-7" d="M178.16,18.51a.91.91,0,1,1-1.82,0v-.88a.91.91,0,1,1,1.82,0Z" transform="translate(0 0)"/><path class="cls-4" d="M177.25,20.16a1.66,1.66,0,0,1-1.66-1.66v-.88a1.66,1.66,0,1,1,3.32,0v.88a1.66,1.66,0,0,1-1.66,1.66m0-2.7a.16.16,0,0,0-.16.16v.88c0,.17.32.17.32,0v-.88a.16.16,0,0,0-.16-.16" transform="translate(0 0)"/><path class="cls-6" d="M192.62,15.68V13.57a7.88,7.88,0,0,0-15.76,0v2.11a.6.6,0,0,0,.6.6H192a.6.6,0,0,0,.6-.6" transform="translate(0 0)"/><path class="cls-4" d="M192,17H177.46a1.35,1.35,0,0,1-1.35-1.35V13.57a8.63,8.63,0,1,1,17.26,0v2.11A1.35,1.35,0,0,1,192,17m-14.41-1.5h14.26v-2a7.13,7.13,0,1,0-14.26,0Z" transform="translate(0 0)"/><path class="cls-3" d="M193.24,36.37V35a8.33,8.33,0,1,0-16.65,0v1.35Z" transform="translate(0 0)"/><path class="cls-7" d="M193.24,36.37V35a8.29,8.29,0,0,0-2.31-5.74v7.09Z" transform="translate(0 0)"/><path class="cls-7" d="M178.69,35.54v-6a8.28,8.28,0,0,0-2.1,5.5v1.36h2.1Z" transform="translate(0 0)"/><path class="cls-7" d="M182.92,33.82h3.81c1.77,0,2.79-1.32,2.73-3.37V28.29a7.32,7.32,0,0,0-3.7-1.54c-.91,0-1.67,0-1.83,0h-.24a7.34,7.34,0,0,0-3.53,1.64v2.22a2.79,2.79,0,0,0,2.76,3.15" transform="translate(0 0)"/><path class="cls-4" d="M186.74,34.58h-3.82a3.55,3.55,0,0,1-3.51-4V28.1l.26-.23a8.13,8.13,0,0,1,3.9-1.81l.28,0c.09,0,.27,0,1.92,0a8.14,8.14,0,0,1,4.18,1.71l.28.23v2.52a4.22,4.22,0,0,1-1,3.15,3.31,3.31,0,0,1-2.45,1m-5.84-5.77v1.87a2.14,2.14,0,0,0,.49,1.71,2,2,0,0,0,1.53.69h3.82a1.82,1.82,0,0,0,1.37-.52,2.8,2.8,0,0,0,.61-2.08V28.67a6.58,6.58,0,0,0-3-1.17c-1.37,0-1.64,0-1.68,0l-.28,0a6.59,6.59,0,0,0-2.82,1.25" transform="translate(0 0)"/><path class="cls-4" d="M194,36.37h-1.5V35A7.56,7.56,0,0,0,180,29.28l-1-1.14A9.07,9.07,0,0,1,194,35Z" transform="translate(0 0)"/><path class="cls-4" d="M178.23,31.46l-1.32-.71a9.14,9.14,0,0,1,.94-1.41l1.17.94a7.78,7.78,0,0,0-.78,1.18" transform="translate(0 0)"/><path class="cls-4" d="M177.34,36.37h-1.5V35a9,9,0,0,1,.24-2.08l1.46.34a7.59,7.59,0,0,0-.2,1.73Z" transform="translate(0 0)"/><path class="cls-7" d="M184.77,30.05h0A1.81,1.81,0,0,1,183,28.24V24.4a1.81,1.81,0,1,1,3.63,0v3.83a1.81,1.81,0,0,1-1.81,1.81" transform="translate(0 0)"/><path class="cls-4" d="M187.33,28.92h-1.5V24.4a1.07,1.07,0,0,0-2.13,0v4.52h-1.5V24.4a2.57,2.57,0,0,1,5.13,0Z" transform="translate(0 0)"/><path class="cls-7" d="M187.77,25.92l-1.19.43H183l-1.19-.43a5,5,0,0,1-3.58-4.51l-.05-5.13h.28c2.28,0,4.47-1.75,5.8-3.29l.71-.82.63.74c1.32,1.57,3.44,3.36,5.76,3.36l0,5.13a5,5,0,0,1-3.58,4.51" transform="translate(0 0)"/><path class="cls-4" d="M186.74,27.09H182.8l-1.33-.58a6.69,6.69,0,0,1-4-6.14v-4h1.5v4a5.19,5.19,0,0,0,3.13,4.76l1,.45h3.32l1-.45a5.19,5.19,0,0,0,3.13-4.76v-4h1.5v4a6.69,6.69,0,0,1-4,6.14Z" transform="translate(0 0)"/><path class="cls-4" d="M191.3,17a7.83,7.83,0,0,1-6.43-3.36l0,0-.09.13A7.84,7.84,0,0,1,178.41,17h-.62v-1.5h.63a6.34,6.34,0,0,0,5.14-2.64L184.88,11l1.23,1.77a6.33,6.33,0,0,0,5.2,2.72Z" transform="translate(0 0)"/><path class="cls-4" d="M181.66,18.14a2,2,0,0,1-1.41-.58l1.06-1.06a.5.5,0,0,0,.69,0l1.06,1.06a2,2,0,0,1-1.41.58" transform="translate(0 0)"/><path class="cls-4" d="M187.82,18.14a2,2,0,0,1-1.41-.58l1.06-1.06a.5.5,0,0,0,.69,0l1.06,1.06a2,2,0,0,1-1.41.58" transform="translate(0 0)"/><rect class="cls-4" x="184.02" y="31.04" width="1.5" height="3.1"/><path class="cls-3" d="M179.64,8.88l-5.42,2.06a.37.37,0,0,0-.13.6l2.4,2.4a.37.37,0,0,0,.59-.09Z" transform="translate(0 0)"/><path class="cls-3" d="M178.19,10.34l2.07-5.45a.37.37,0,0,1,.61-.13l2.41,2.41a.37.37,0,0,1-.09.59Z" transform="translate(0 0)"/><path class="cls-4" d="M176.76,14.8a1.12,1.12,0,0,1-.79-.33l-2.4-2.4a1.12,1.12,0,0,1,.39-1.83l4.87-1.85A1,1,0,0,1,180,9.75l-2.29,4.45a1.12,1.12,0,0,1-.82.59h-.17M175,11.43,176.65,13l1.42-2.76Z" transform="translate(0 0)"/><path class="cls-4" d="M178.64,10.83a1,1,0,0,1-.93-1.35l1.85-4.86a1.12,1.12,0,0,1,1.84-.39l2.41,2.41a1.12,1.12,0,0,1-.28,1.79l-4.44,2.29a1,1,0,0,1-.46.11m2.11-5.12-1.17,3.08,2.8-1.44Z" transform="translate(0 0)"/><path class="cls-3" d="M179.6,8.84a1,1,0,1,1-1.46,0,1,1,0,0,1,1.46,0" transform="translate(0 0)"/><path class="cls-4" d="M178.87,11.35a1.78,1.78,0,1,1,1.26-.52,1.77,1.77,0,0,1-1.26.52m0-2.06a.28.28,0,0,0-.2.08.28.28,0,1,0,.2-.08" transform="translate(0 0)"/><polygon class="cls-4" points="185.78 21.6 183.3 21.6 183.3 19.21 184.8 19.21 184.8 20.1 185.78 20.1 185.78 21.6"/><path class="cls-4" d="M185.89,24.55h-2a4.75,4.75,0,0,1-3.34-1.39l-.2-.2,1.06-1.06.2.2a3.24,3.24,0,0,0,2.28.95h2a3.21,3.21,0,0,0,2.2-.87l.31-.3,1,1.09-.32.3a4.7,4.7,0,0,1-3.22,1.27" transform="translate(0 0)"/><path class="cls-4" d="M184.85,41a20.51,20.51,0,1,1,8-39.4L192.25,3a19,19,0,1,0,7.17,5.3l1.15-1A20.51,20.51,0,0,1,184.85,41" transform="translate(0 0)"/><path class="cls-4" d="M198.65,7.44q-.43-.46-.89-.88l1-1.1q.5.46,1,1Z" transform="translate(0 0)"/><path class="cls-4" d="M196.34,5.37a19,19,0,0,0-2.65-1.69l.7-1.33a20.63,20.63,0,0,1,2.86,1.83Z" transform="translate(0 0)"/><path class="cls-4" d="M117.64,63a20.16,20.16,0,1,1,7.85-38.74l-.58,1.38a18.68,18.68,0,1,0,7,5.2l1.15-1A20.16,20.16,0,0,1,117.64,63" transform="translate(0 0)"/><path class="cls-4" d="M131.19,30q-.42-.45-.87-.86l1-1.1q.49.45.94.94Z" transform="translate(0 0)"/><path class="cls-4" d="M128.93,28a18.61,18.61,0,0,0-2.6-1.66L127,25a20.05,20.05,0,0,1,2.81,1.79Z" transform="translate(0 0)"/><path class="cls-7" d="M125.39,38.63a.83.83,0,1,1-1.66,0v-.8a.83.83,0,0,1,1.66,0Z" transform="translate(0 0)"/><path class="cls-4" d="M124.56,40.21A1.58,1.58,0,0,1,123,38.63v-.8a1.58,1.58,0,0,1,3.16,0v.8a1.58,1.58,0,0,1-1.58,1.58m0-2.46a.08.08,0,0,0-.08.08v.8c0,.09.16.09.16,0v-.8a.08.08,0,0,0-.08-.08" transform="translate(0 0)"/><path class="cls-7" d="M111.75,38.63a.83.83,0,1,1-1.66,0v-.8a.83.83,0,0,1,1.66,0Z" transform="translate(0 0)"/><path class="cls-4" d="M110.92,40.21a1.58,1.58,0,0,1-1.58-1.58v-.8a1.58,1.58,0,0,1,3.16,0v.8a1.58,1.58,0,0,1-1.58,1.58m0-2.46a.08.08,0,0,0-.08.08v.8c0,.09.16.09.16,0v-.8a.08.08,0,0,0-.08-.08" transform="translate(0 0)"/><path class="cls-6" d="M126.92,57.76V55.13c0-4.38-4.18-8-9.28-8s-9.28,3.58-9.28,8v2.63Z" transform="translate(0 0)"/><path class="cls-4" d="M109.11,57.76h-1.5V55.13A7.62,7.62,0,0,1,107.9,53l1.44.41a6.1,6.1,0,0,0-.23,1.68Z" transform="translate(0 0)"/><path class="cls-4" d="M109.94,52l-1.31-.74A8.87,8.87,0,0,1,110.52,49l1,1.13a7.4,7.4,0,0,0-1.56,1.9" transform="translate(0 0)"/><path class="cls-4" d="M127.67,57.76h-1.5V55.13c0-4-3.83-7.21-8.53-7.21a9.54,9.54,0,0,0-4.87,1.3L112,47.93a11.05,11.05,0,0,1,5.64-1.51c5.53,0,10,3.91,10,8.71Z" transform="translate(0 0)"/><polygon class="cls-7" points="119.94 50.84 114.95 50.84 115.63 43.35 119.27 43.35 119.94 50.84"/><path class="cls-4" d="M120.76,51.59h-6.62l.8-9h5Zm-5-1.5h3.34l-.53-6h-2.27Z" transform="translate(0 0)"/><path class="cls-7" d="M123.24,46.23H112.41a1.05,1.05,0,0,1-1.05-1.1l.39-9.34a6.08,6.08,0,0,1,12.15,0l.39,9.34a1.06,1.06,0,0,1-1.05,1.1" transform="translate(0 0)"/><path class="cls-4" d="M123.24,47H112.41a1.8,1.8,0,0,1-1.8-1.88l.39-9.34a6.83,6.83,0,0,1,13.65,0L125,45.1a1.8,1.8,0,0,1-1.8,1.88M117.82,30.7a5.32,5.32,0,0,0-5.33,5.12l-.39,9.34a.3.3,0,0,0,.3.32h10.83a.3.3,0,0,0,.3-.32l-.39-9.34a5.32,5.32,0,0,0-5.32-5.12" transform="translate(0 0)"/><rect class="cls-4" x="113.47" y="35.62" width="3.32" height="1.5"/><rect class="cls-4" x="114.73" y="36.88" width="0.86" height="1.5"/><rect class="cls-4" x="119.75" y="36.88" width="0.86" height="1.5"/><rect class="cls-4" x="118.5" y="35.62" width="3.32" height="1.5"/><polygon class="cls-4" points="118.57 41.62 116.14 41.62 116.14 40.12 117.07 40.12 117.07 36.06 118.57 36.06 118.57 41.62"/><path class="cls-4" d="M118.4,44.36h-2.82v-1.5h2.82a2.59,2.59,0,0,0,1.64-.59l.19-.16.95,1.16-.19.15a4.09,4.09,0,0,1-2.59.92" transform="translate(0 0)"/><path class="cls-3" d="M119.68,31.7c-.69,1.55-3.49.8-3.19,1.94.14.55-1.39-2.12-.71-3.67S117.9,27.55,119,28s1.39,2.12.71,3.67" transform="translate(0 0)"/><path class="cls-4" d="M116.42,34.65l-.44-.37c-.42-.37-1.63-2.91-.88-4.6a4.58,4.58,0,0,1,1.75-2.07,2.62,2.62,0,0,1,2.44-.26c1.48.66,2,2.7,1.09,4.66a3.2,3.2,0,0,1-2.6,1.58l-.52.12a.76.76,0,0,1-.36.66Zm1.93-6a1.48,1.48,0,0,0-.72.23,3.12,3.12,0,0,0-1.15,1.4,3.17,3.17,0,0,0,.17,2,5.81,5.81,0,0,1,.85-.21c.77-.15,1.33-.29,1.52-.71.55-1.25.27-2.42-.33-2.68a.81.81,0,0,0-.33-.07" transform="translate(0 0)"/><polygon class="cls-4" points="111.45 55.95 108.06 54.48 108.66 53.1 111.45 54.31 114.54 52.97 117.63 54.31 120.73 52.97 123.82 54.31 126.62 53.1 127.22 54.48 123.82 55.95 120.73 54.61 117.63 55.95 114.54 54.61 111.45 55.95"/><polygon class="cls-4" points="111.45 57.95 108.06 56.49 108.66 55.11 111.45 56.32 114.54 54.98 117.63 56.32 120.73 54.98 123.82 56.32 126.62 55.11 127.22 56.49 123.82 57.95 120.73 56.62 117.63 57.95 114.54 56.62 111.45 57.95"/><path class="cls-4" d="M20.09,97.07a20.09,20.09,0,1,1,7.82-38.6l-.58,1.38a18.61,18.61,0,1,0,7,5.18l1.15-1a20.09,20.09,0,0,1-15.39,33" transform="translate(0 0)"/><path class="cls-4" d="M33.6,64.2c-.28-.3-.57-.58-.87-.86l1-1.1q.49.45.94.93Z" transform="translate(0 0)"/><path class="cls-4" d="M31.34,62.17a18.76,18.76,0,0,0-2.59-1.65l.7-1.33A20.05,20.05,0,0,1,32.24,61Z" transform="translate(0 0)"/><rect class="cls-6" x="12.65" y="69.35" width="15.14" height="18.92"/><path class="cls-4" d="M28.54,89H11.9V68.6H28.54ZM13.4,87.51H27V70.1H13.4Z" transform="translate(0 0)"/><path class="cls-7" d="M28.06,74.24a.86.86,0,0,1-1.72,0v-.83a.86.86,0,0,1,1.72,0Z" transform="translate(0 0)"/><path class="cls-4" d="M27.2,75.85a1.61,1.61,0,0,1-1.61-1.61v-.83a1.61,1.61,0,0,1,3.22,0v.83a1.61,1.61,0,0,1-1.61,1.61m0-2.55a.11.11,0,0,0-.11.11v.83c0,.12.22.12.22,0v-.83a.11.11,0,0,0-.11-.11" transform="translate(0 0)"/><path class="cls-7" d="M13.74,74.24a.86.86,0,0,1-1.72,0v-.83a.86.86,0,0,1,1.72,0Z" transform="translate(0 0)"/><path class="cls-4" d="M12.88,75.85a1.61,1.61,0,0,1-1.61-1.61v-.83a1.61,1.61,0,0,1,3.22,0v.83a1.61,1.61,0,0,1-1.61,1.61m0-2.55a.11.11,0,0,0-.11.11v.83c0,.12.22.12.22,0v-.83a.11.11,0,0,0-.11-.11" transform="translate(0 0)"/><path class="cls-3" d="M28.16,91.73V90.42a8,8,0,0,0-16,0v1.31Z" transform="translate(0 0)"/><path class="cls-4" d="M28.91,91.73h-1.5V90.42a7.25,7.25,0,0,0-12-5.5l-1-1.14a8.75,8.75,0,0,1,14.47,6.63Z" transform="translate(0 0)"/><path class="cls-4" d="M13.74,87l-1.32-.71a8.89,8.89,0,0,1,.9-1.37l1.17.94A7.42,7.42,0,0,0,13.74,87" transform="translate(0 0)"/><path class="cls-4" d="M12.89,91.73h-1.5V90.42a8.75,8.75,0,0,1,.23-2l1.46.35a7.2,7.2,0,0,0-.19,1.66Z" transform="translate(0 0)"/><path class="cls-7" d="M20,85.65h0a1.75,1.75,0,0,1-1.75-1.75V80.21a1.75,1.75,0,1,1,3.49,0V83.9A1.75,1.75,0,0,1,20,85.65" transform="translate(0 0)"/><path class="cls-4" d="M20,86.4a2.5,2.5,0,0,1-2.5-2.5V80.21a2.5,2.5,0,1,1,5,0V83.9A2.5,2.5,0,0,1,20,86.4m0-7.18a1,1,0,0,0-1,1V83.9a1,1,0,1,0,2,0V80.21a1,1,0,0,0-1-1" transform="translate(0 0)"/><path class="cls-7" d="M26.75,68.68v6.83A6.52,6.52,0,0,1,20,81.74a6.52,6.52,0,0,1-6.74-6.23V68.68Z" transform="translate(0 0)"/><path class="cls-4" d="M20,82.49a7.26,7.26,0,0,1-7.49-7V67.93h15v7.58a7.26,7.26,0,0,1-7.49,7M14,69.43v6.08A5.76,5.76,0,0,0,20,81a5.76,5.76,0,0,0,6-5.48V69.43Z" transform="translate(0 0)"/><path class="cls-4" d="M16.64,75.22a2.76,2.76,0,1,1,2.76-2.76,2.77,2.77,0,0,1-2.76,2.76m0-4a1.26,1.26,0,1,0,1.26,1.26,1.26,1.26,0,0,0-1.26-1.26" transform="translate(0 0)"/><path class="cls-4" d="M17.17,73.2a.77.77,0,0,0-1.06,0L15,72.14a2.31,2.31,0,0,1,3.18,0Z" transform="translate(0 0)"/><path class="cls-4" d="M23.79,73.21a.77.77,0,0,0-1.06,0l-1.06-1.06a2.31,2.31,0,0,1,3.18,0Z" transform="translate(0 0)"/><path class="cls-4" d="M23.24,75.22A2.76,2.76,0,1,1,26,72.45a2.77,2.77,0,0,1-2.76,2.76m0-4a1.26,1.26,0,1,0,1.26,1.26,1.26,1.26,0,0,0-1.26-1.26" transform="translate(0 0)"/><rect class="cls-4" x="18.65" y="70.81" width="2.52" height="1.5"/><polygon class="cls-4" points="20.66 77.29 18.76 77.29 18.76 72.45 20.26 72.45 20.26 75.79 20.66 75.79 20.66 77.29"/><polygon class="cls-4" points="22.79 79.83 16.67 79.83 15.68 78.28 16.94 77.47 17.49 78.33 22.17 78.33 22.88 77.61 23.94 78.67 22.79 79.83"/><rect class="cls-4" x="13.14" y="67.93" width="14.06" height="1.5"/><path class="cls-6" d="M27.79,69.34V68.6a7.57,7.57,0,0,0-15.14,0v.75Z" transform="translate(0 0)"/><path class="cls-4" d="M28.54,70.09H11.9V68.6a8.32,8.32,0,0,1,16.64,0ZM13.4,68.59H27a6.82,6.82,0,0,0-13.64,0" transform="translate(0 0)"/><rect class="cls-4" x="14.9" y="67.31" width="1.5" height="2.04"/><rect class="cls-4" x="16.73" y="67.31" width="1.5" height="2.04"/><rect class="cls-4" x="18.56" y="67.31" width="1.5" height="2.04"/><rect class="cls-4" x="20.4" y="67.31" width="1.5" height="2.04"/><rect class="cls-4" x="22.23" y="67.31" width="1.5" height="2.04"/><rect class="cls-4" x="24.06" y="67.31" width="1.5" height="2.04"/><path class="cls-7" d="M367.86,152.51V151a1.28,1.28,0,0,0-1.28-1.28h-2a9.15,9.15,0,0,0-1.19-2.87l1.41-1.41a1.28,1.28,0,0,0,0-1.82l-1.05-1.05a1.29,1.29,0,0,0-1.82,0L360.54,144a9.14,9.14,0,0,0-2.86-1.19v-2a1.29,1.29,0,0,0-1.29-1.29H354.9a1.29,1.29,0,0,0-1.29,1.29v2a9.17,9.17,0,0,0-2.82,1.16l-1.4-1.41a1.28,1.28,0,0,0-1.82,0l-1.06,1a1.29,1.29,0,0,0,0,1.82l1.4,1.42a9.1,9.1,0,0,0-1.2,2.86h-2a1.28,1.28,0,0,0-1.29,1.28v1.49h8.14c0-2.25,1.83-4.77,4.08-4.77s4.08,2.52,4.08,4.77Z" transform="translate(0 0)"/><path class="cls-4" d="M368.61,152.51h-1.5V151a.53.53,0,0,0-.53-.53H364l-.13-.58a8.39,8.39,0,0,0-1.09-2.63l-.32-.51,1.83-1.83a.54.54,0,0,0,.16-.38.52.52,0,0,0-.16-.37l-1.05-1.06a.54.54,0,0,0-.76,0l-1.83,1.83-.51-.32a8.31,8.31,0,0,0-2.63-1.09l-.58-.13v-2.59a.54.54,0,0,0-.54-.54H354.9a.54.54,0,0,0-.54.54v2.59l-.58.13a8.47,8.47,0,0,0-2.59,1.07l-.51.31-1.82-1.83a.54.54,0,0,0-.39-.16.51.51,0,0,0-.37.15l-1.06,1a.54.54,0,0,0,0,.76l1.82,1.84-.32.5a8.39,8.39,0,0,0-1.1,2.62l-.13.58h-2.59a.52.52,0,0,0-.37.15.54.54,0,0,0-.16.38v1.49h-1.5v-1.49a2,2,0,0,1,2-2h1.4a9.83,9.83,0,0,1,.83-2l-1-1a2,2,0,0,1,0-2.87l1.06-1a2,2,0,0,1,1.43-.59h0a2,2,0,0,1,1.45.6l1,1a9.92,9.92,0,0,1,1.95-.8v-1.41a2,2,0,0,1,2-2h1.48a2,2,0,0,1,2,2v1.41a9.78,9.78,0,0,1,2,.83l1-1a2,2,0,0,1,2.88,0l1.05,1.05a2,2,0,0,1,0,2.88l-1,1a9.87,9.87,0,0,1,.83,2h1.41a2,2,0,0,1,2,2Zm-8.14-.77H359a3.33,3.33,0,0,0-6.66,0h-1.5a4.83,4.83,0,0,1,9.66,0" transform="translate(0 0)"/><path class="cls-5" d="M369.81,128.52h-1.43a6.63,6.63,0,0,0-.86-2.06l1-1a.92.92,0,0,0,0-1.31l-.76-.76a.93.93,0,0,0-1.31,0l-1,1a6.55,6.55,0,0,0-2.06-.86v-1.43a.93.93,0,0,0-.93-.92h-1.07a.93.93,0,0,0-.93.92v1.43a6.63,6.63,0,0,0-2,.84l-1-1a.93.93,0,0,0-1.31,0l-.76.75a.93.93,0,0,0,0,1.31l1,1a6.53,6.53,0,0,0-.86,2.06h-1.43a.92.92,0,0,0-.93.92v1.07a.93.93,0,0,0,.92.93h1.43a6.53,6.53,0,0,0,.85,2.06l-1,1a.92.92,0,0,0,0,1.31l.75.76a.92.92,0,0,0,1.31,0l1-1a6.58,6.58,0,0,0,2.06.86v1.43a.93.93,0,0,0,.92.93h1.07a.92.92,0,0,0,.93-.92v-1.43a6.59,6.59,0,0,0,2.07-.85l1,1a.93.93,0,0,0,1.31,0l.76-.76a.92.92,0,0,0,0-1.31l-1-1a6.57,6.57,0,0,0,.86-2.07h1.43a.93.93,0,0,0,.93-.93v-1.07a.92.92,0,0,0-.92-.92m-7.88,4.39a2.94,2.94,0,1,1,2.94-2.94,2.94,2.94,0,0,1-2.94,2.94" transform="translate(0 0)"/><path class="cls-4" d="M362.44,139.51h-1.07a1.67,1.67,0,0,1-1.67-1.68V137a7.32,7.32,0,0,1-1.19-.5l-.61.6a1.66,1.66,0,0,1-1.18.49h0a1.67,1.67,0,0,1-1.19-.5l-.75-.76a1.67,1.67,0,0,1,0-2.37l.61-.61a7.24,7.24,0,0,1-.49-1.19H354a1.68,1.68,0,0,1-1.67-1.68v-1.07a1.67,1.67,0,0,1,1.67-1.67h.87a7.3,7.3,0,0,1,.5-1.19l-.6-.61a1.68,1.68,0,0,1,0-2.37l.76-.75a1.65,1.65,0,0,1,1.18-.49h0a1.67,1.67,0,0,1,1.19.49l.61.61a7.3,7.3,0,0,1,1.15-.48v-.86a1.68,1.68,0,0,1,1.68-1.68h1.07a1.68,1.68,0,0,1,1.68,1.68v.86a7.29,7.29,0,0,1,1.19.49l.61-.61a1.66,1.66,0,0,1,1.18-.49h0a1.67,1.67,0,0,1,1.18.49l.76.76a1.67,1.67,0,0,1,0,2.37l-.61.6a7.31,7.31,0,0,1,.49,1.19h.86a1.67,1.67,0,0,1,1.67,1.67v1.07a1.68,1.68,0,0,1-1.68,1.67h-.86a7.32,7.32,0,0,1-.5,1.19l.6.61a1.67,1.67,0,0,1,0,2.37l-.75.75a1.69,1.69,0,0,1-2.37,0l-.61-.61a7.43,7.43,0,0,1-1.19.49v.86a1.68,1.68,0,0,1-1.68,1.67m-4.15-4.93.51.32a5.85,5.85,0,0,0,1.83.77l.58.13v2a.18.18,0,0,0,.05.13.17.17,0,0,0,.12.05h1.07a.18.18,0,0,0,.17-.17v-2l.58-.13a5.85,5.85,0,0,0,1.83-.76l.51-.32L367,136a.18.18,0,0,0,.25,0l.75-.75a.17.17,0,0,0,.05-.13.16.16,0,0,0,0-.12l-1.43-1.45.32-.5a5.82,5.82,0,0,0,.76-1.83l.13-.59h2a.18.18,0,0,0,.18-.18v-1.07a.17.17,0,0,0-.17-.17h-2l-.13-.58a5.86,5.86,0,0,0-.76-1.83l-.32-.51L368,124.9a.17.17,0,0,0,.05-.13.16.16,0,0,0-.05-.12l-.76-.76a.19.19,0,0,0-.25,0l-1.44,1.44L365,125a5.79,5.79,0,0,0-1.82-.76l-.58-.13v-2a.18.18,0,0,0-.18-.18h-1.07a.18.18,0,0,0-.18.18v2l-.58.13a5.85,5.85,0,0,0-1.8.74l-.51.31-1.43-1.44a.24.24,0,0,0-.13-.05.16.16,0,0,0-.12,0l-.77.76a.17.17,0,0,0-.05.12.17.17,0,0,0,0,.12l1.43,1.45-.32.5a5.81,5.81,0,0,0-.77,1.82l-.13.59h-2a.17.17,0,0,0-.12,0,.18.18,0,0,0-.05.13v1.07a.18.18,0,0,0,.18.18h2l.13.58a5.79,5.79,0,0,0,.75,1.83l.32.51L355.84,135a.2.2,0,0,0,0,.25l.75.76a.17.17,0,0,0,.13.05.17.17,0,0,0,.12,0Zm3.65-.93a3.69,3.69,0,1,1,3.69-3.69,3.69,3.69,0,0,1-3.69,3.69m0-5.87a2.19,2.19,0,1,0,2.19,2.18,2.19,2.19,0,0,0-2.19-2.18" transform="translate(0 0)"/><path class="cls-7" d="M43.46,152.51H21.54a1.81,1.81,0,0,1-1.81-1.81V122.47a1.81,1.81,0,0,1,1.81-1.81H43.46a1.81,1.81,0,0,1,1.81,1.81V150.7a1.81,1.81,0,0,1-1.81,1.81" transform="translate(0 0)"/><path class="cls-4" d="M43.46,153.26H21.54A2.56,2.56,0,0,1,19,150.7V122.47a2.56,2.56,0,0,1,2.56-2.56H40.46v1.5H21.54a1.06,1.06,0,0,0-1.06,1.06V150.7a1.06,1.06,0,0,0,1.06,1.06H43.46a1.06,1.06,0,0,0,1.06-1.06H46a2.56,2.56,0,0,1-2.56,2.56" transform="translate(0 0)"/><rect class="cls-3" x="23.23" y="135.08" width="2.64" height="2.64"/><rect class="cls-3" x="28.53" y="135.08" width="2.64" height="2.64"/><rect class="cls-3" x="33.83" y="135.08" width="2.64" height="2.64"/><rect class="cls-3" x="39.13" y="135.08" width="2.64" height="2.64"/><rect class="cls-3" x="23.23" y="139.92" width="2.64" height="2.64"/><rect class="cls-3" x="28.53" y="139.92" width="2.64" height="2.64"/><rect class="cls-3" x="33.83" y="139.92" width="2.64" height="2.64"/><rect class="cls-3" x="39.13" y="139.92" width="2.64" height="2.64"/><rect class="cls-3" x="23.23" y="144.75" width="2.64" height="2.64"/><rect class="cls-3" x="28.53" y="144.75" width="2.64" height="2.64"/><rect class="cls-3" x="33.83" y="144.75" width="2.64" height="2.64"/><rect class="cls-3" x="39.13" y="144.75" width="2.64" height="2.64"/><path class="cls-4" d="M26.62,138.47H22.48v-4.14h4.14ZM24,137h1.14v-1.14H24Z" transform="translate(0 0)"/><path class="cls-4" d="M31.92,138.47H27.78v-4.14h4.14ZM29.28,137h1.14v-1.14H29.28Z" transform="translate(0 0)"/><path class="cls-4" d="M37.22,138.47H33.08v-4.14h4.14ZM34.58,137h1.14v-1.14H34.58Z" transform="translate(0 0)"/><path class="cls-4" d="M42.52,138.47H38.38v-4.14h4.14ZM39.88,137H41v-1.14H39.88Z" transform="translate(0 0)"/><path class="cls-4" d="M26.62,143.3H22.48v-4.14h4.14ZM24,141.8h1.14v-1.14H24Z" transform="translate(0 0)"/><path class="cls-4" d="M31.92,143.3H27.78v-4.14h4.14Zm-2.64-1.5h1.14v-1.14H29.28Z" transform="translate(0 0)"/><path class="cls-4" d="M37.22,143.3H33.08v-4.14h4.14Zm-2.64-1.5h1.14v-1.14H34.58Z" transform="translate(0 0)"/><path class="cls-4" d="M42.52,143.3H38.38v-4.14h4.14Zm-2.64-1.5H41v-1.14H39.88Z" transform="translate(0 0)"/><path class="cls-4" d="M26.62,148.14H22.48V144h4.14ZM24,146.64h1.14V145.5H24Z" transform="translate(0 0)"/><path class="cls-4" d="M31.92,148.14H27.78V144h4.14Zm-2.64-1.5h1.14V145.5H29.28Z" transform="translate(0 0)"/><path class="cls-4" d="M37.22,148.14H33.08V144h4.14Zm-2.64-1.5h1.14V145.5H34.58Z" transform="translate(0 0)"/><path class="cls-4" d="M42.52,148.14H38.38V144h4.14Zm-2.64-1.5H41V145.5H39.88Z" transform="translate(0 0)"/><rect class="cls-5" x="23.23" y="125.27" width="18.54" height="6.34"/><polygon class="cls-6" points="24.85 131.61 31.44 131.61 37.78 125.27 31.19 125.27 24.85 131.61"/><polygon class="cls-6" points="36.34 131.61 41.77 126.18 41.77 125.27 39.15 125.27 32.81 131.61 36.34 131.61"/><polygon class="cls-3" points="144.13 91.59 70.13 91.59 63.79 100.42 150.41 100.42 144.13 91.59"/><polygon class="cls-4" points="64.4 100.86 63.18 99.99 69.75 90.84 144.51 90.84 151.02 99.99 149.8 100.86 143.74 92.34 70.52 92.34 64.4 100.86"/><polygon class="cls-8" points="126.6 100.3 87.72 100.3 63.93 100.3 63.93 152.4 150.26 152.4 150.26 100.3 126.6 100.3"/><path class="cls-4" d="M151,153.15H63.18V99.55H151Zm-86.33-1.5h84.83V101H64.68Z" transform="translate(0 0)"/><rect class="cls-3" x="68.51" y="106.51" width="5.39" height="7.44"/><rect class="cls-3" x="76.97" y="106.51" width="5.39" height="7.44"/><rect class="cls-3" x="68.51" y="117.33" width="5.39" height="7.44"/><rect class="cls-3" x="76.97" y="117.33" width="5.39" height="7.44"/><rect class="cls-3" x="68.51" y="128.15" width="5.39" height="7.44"/><rect class="cls-3" x="76.97" y="128.15" width="5.39" height="7.44"/><g class="cls-9"><g class="cls-10"><rect class="cls-11" x="64.36" y="101.54" width="69.51" height="3.14"/></g></g><rect class="cls-5" x="62.69" y="100.03" width="71.18" height="3.14"/><path class="cls-4" d="M134.62,103.92H61.94V99.28h72.68Zm-71.18-1.5h69.68v-1.64H63.44Z" transform="translate(0 0)"/><g class="cls-9"><g class="cls-12"><rect class="cls-11" x="84.78" y="104.74" width="7.2" height="47.66"/></g></g><rect class="cls-13" x="86.88" y="86.11" width="41.17" height="65.87"/><path class="cls-4" d="M128.68,153.15H86V85.78h42.67Zm-41.17-1.5h39.67V87.28H87.5Z" transform="translate(0 0)"/><g class="cls-9"><g class="cls-14"><rect class="cls-11" x="87.17" y="86.32" width="40.39" height="3.77"/></g></g><rect class="cls-5" x="84.78" y="84.51" width="45.26" height="3.77"/><polygon class="cls-4" points="126.04 89.03 84.03 89.03 84.03 83.76 125.04 83.76 125.04 85.26 85.53 85.26 85.53 87.53 126.04 87.53 126.04 89.03"/><rect class="cls-3" x="99.63" y="92.89" width="5.39" height="11.3"/><rect class="cls-3" x="109.7" y="93.02" width="5.39" height="11.29"/><rect class="cls-3" x="99.64" y="107.8" width="5.39" height="11.3"/><rect class="cls-3" x="109.7" y="107.75" width="5.39" height="11.3"/><rect class="cls-3" x="89.57" y="107.64" width="5.39" height="11.3"/><rect class="cls-3" x="89.28" y="92.89" width="5.39" height="11.3"/><rect class="cls-3" x="119.87" y="93.02" width="5.39" height="11.29"/><rect class="cls-3" x="119.77" y="107.69" width="5.39" height="11.3"/><path class="cls-7" d="M114.39,152.21H100.54v-10a6.93,6.93,0,0,1,13.85,0Z" transform="translate(0 0)"/><path class="cls-4" d="M115.14,153H99.79V142.24a7.68,7.68,0,0,1,15.35,0Zm-13.85-1.5h12.35v-9.22a6.18,6.18,0,0,0-12.35,0Z" transform="translate(0 0)"/><rect class="cls-4" x="106.71" y="135.79" width="1.5" height="16.43"/><g class="cls-9"><g class="cls-15"><rect class="cls-11" x="90.53" y="90.08" width="3.7" height="62.42"/></g></g><g class="cls-9"><g class="cls-16"><rect class="cls-11" x="120.38" y="90.08" width="3.84" height="62.42"/></g></g><rect class="cls-7" x="92.01" y="88.28" width="5" height="64.23"/><rect class="cls-6" x="95.23" y="88.28" width="1.38" height="64.23"/><path class="cls-4" d="M97.77,153.26h-6.5V87.52h6.5Zm-5-1.5h3.5V89h-3.5Z" transform="translate(0 0)"/><rect class="cls-7" x="117.69" y="88.28" width="5" height="64.23"/><rect class="cls-6" x="117.69" y="88.28" width="1.6" height="64.23"/><path class="cls-4" d="M123.44,153.26h-6.5V87.52h6.5Zm-5-1.5h3.5V89h-3.5Z" transform="translate(0 0)"/><polygon class="cls-6" points="133.04 84.87 81.89 84.87 107.47 66.22 133.04 84.87"/><polygon class="cls-4" points="126 85.62 79.58 85.62 107.47 65.3 126.92 79.47 126.03 80.69 107.47 67.15 84.19 84.12 126 84.12 126 85.62"/><rect class="cls-4" x="67.72" y="134.83" width="6.73" height="1.5"/><rect class="cls-4" x="76.17" y="134.83" width="6.73" height="1.5"/><rect class="cls-4" x="67.72" y="124.01" width="6.73" height="1.5"/><rect class="cls-4" x="76.17" y="124.01" width="6.73" height="1.5"/><rect class="cls-4" x="67.72" y="113.19" width="6.73" height="1.5"/><rect class="cls-4" x="76.17" y="113.19" width="6.73" height="1.5"/><rect class="cls-4" x="98.82" y="118.35" width="6.73" height="1.5"/><rect class="cls-4" x="109.3" y="118.35" width="6.73" height="1.5"/><rect class="cls-4" x="98.82" y="103.43" width="6.73" height="1.5"/><rect class="cls-4" x="88.75" y="103.43" width="2.56" height="1.5"/><rect class="cls-4" x="88.75" y="118.21" width="2.56" height="1.5"/><rect class="cls-4" x="109.3" y="103.43" width="6.73" height="1.5"/><path class="cls-5" d="M166,60.35l5.1-5.28a0,0,0,0,0,0-.06l-6,.42.82,4.9a0,0,0,0,0,.06,0" transform="translate(0 0)"/><path class="cls-4" d="M166.27,61.2l-.93-.26-.1-.49-1-5.71,7.29-.51.47,1-.36.41ZM166,56.12l.45,2.69,2.82-2.92Z" transform="translate(0 0)"/><path class="cls-6" d="M165.16,41.76,171,48.54a.1.1,0,0,1-.09.16l-7.12-1.15Z" transform="translate(0 0)"/><path class="cls-4" d="M171,49.45h-.14l-7.9-1.28,1.6-7,.9-.25.34.36,5.84,6.74a.85.85,0,0,1-.64,1.4m-6.22-2.52,4.55.74-3.73-4.3Z" transform="translate(0 0)"/><path class="cls-5" d="M157.9,42.35l-4.21,4.39a.09.09,0,0,0,.06.16l4.21.24a.1.1,0,0,0,.1-.1V42.41a.1.1,0,0,0-.16-.07" transform="translate(0 0)"/><path class="cls-4" d="M158,47.89h0l-4.21-.24a.85.85,0,0,1-.57-1.43l4.22-4.4a.84.84,0,0,1,1.45.59v4.95l-.26.29a.85.85,0,0,1-.58.23m-2.75-1.66,2.1.12V44Z" transform="translate(0 0)"/><path class="cls-6" d="M157.9,42.55l.16,10.16a.09.09,0,0,0,0,.07L166,60.4a.09.09,0,0,0,.14-.08l.8-5.94a.08.08,0,0,0,0-.07L158,42.48a.09.09,0,0,0-.15.07" transform="translate(0 0)"/><path class="cls-4" d="M166,61.17a.84.84,0,0,1-.46-.14l-.11-.09-7.85-7.58-.27-.18,0-.46-.17-10.64.94-.49.57.45,8.8,11.77.2.17,0,.41-.85,6.42-.38.26a.83.83,0,0,1-.4.1m-7.24-8.75,6.76,6.53.58-4.38-7.47-10Z" transform="translate(0 0)"/><path class="cls-7" d="M158.87,53.34l5.93-11.68a.19.19,0,0,1,.36.1L164,58.32Z" transform="translate(0 0)"/><path class="cls-4" d="M164.66,60,158,53.5l6.18-12.18a.94.94,0,0,1,1.78.49Zm-4.87-6.78,3.59,3.47.84-12.21Z" transform="translate(0 0)"/><path class="cls-5" d="M301.23,80l6.35-6.57a0,0,0,0,0,0-.08l-7.42.52,1,6.11a0,0,0,0,0,.08,0" transform="translate(0 0)"/><path class="cls-4" d="M301.44,80.85l-.93-.27-.1-.49-1.16-6.92,8.76-.61.48,1-.37.42Zm-.44-6.3.66,3.92,4.11-4.25Z" transform="translate(0 0)"/><path class="cls-6" d="M300.12,56.83l7.32,8.45a.12.12,0,0,1-.11.19L298.47,64Z" transform="translate(0 0)"/><path class="cls-4" d="M307.36,66.23h-.14l-9.65-1.56,1.92-8.36.92-.26.34.36L308,64.79a.87.87,0,0,1-.66,1.44m-8-2.8,6.36,1-5.22-6Z" transform="translate(0 0)"/><path class="cls-5" d="M291.07,57.56,285.82,63a.12.12,0,0,0,.08.2l5.25.29a.12.12,0,0,0,.13-.12V57.65a.12.12,0,0,0-.2-.08" transform="translate(0 0)"/><path class="cls-4" d="M291.16,64.28h0L285.86,64a.87.87,0,0,1-.58-1.47L290.53,57a.87.87,0,0,1,1.49.6v6.09l-.27.31a.87.87,0,0,1-.6.24m-3.84-1.72,3.21.18V59.22Z" transform="translate(0 0)"/><path class="cls-6" d="M291.07,57.81l.2,12.66a.11.11,0,0,0,.05.09l9.84,9.5a.11.11,0,0,0,.17-.09l1-7.41a.12.12,0,0,0,0-.08l-11-14.75a.11.11,0,0,0-.18.08" transform="translate(0 0)"/><path class="cls-4" d="M301.22,80.83a.87.87,0,0,1-.47-.14l-.11-.09-9.81-9.47a.85.85,0,0,1-.31-.66l-.2-12.65a.86.86,0,0,1,1.43-.66l.11.11L303,72.14l0,.41-1,7.51a.81.81,0,0,1-.45.66.85.85,0,0,1-.41.1M292,70.19l8.74,8.44.78-5.9-9.69-13Z" transform="translate(0 0)"/><path class="cls-7" d="M292.29,71.26l7.38-14.56a.24.24,0,0,1,.45.12L298.7,77.46Z" transform="translate(0 0)"/><path class="cls-4" d="M299.34,79.12l-8-7.7L299,56.37a1,1,0,0,1,1.87.52Zm-6.14-8,4.86,4.69,1.14-16.51Z" transform="translate(0 0)"/><path class="cls-7" d="M352.1,63.43a.75.75,0,1,1-1.51,0v-.73a.75.75,0,0,1,1.51,0Z" transform="translate(0 0)"/><path class="cls-4" d="M351.34,64.93a1.51,1.51,0,0,1-1.51-1.5v-.73a1.5,1.5,0,0,1,3,0v.73a1.51,1.51,0,0,1-1.5,1.5" transform="translate(0 0)"/><path class="cls-7" d="M340.16,63.43a.75.75,0,1,1-1.51,0v-.73a.75.75,0,0,1,1.51,0Z" transform="translate(0 0)"/><path class="cls-4" d="M339.41,64.93a1.51,1.51,0,0,1-1.51-1.5v-.73a1.5,1.5,0,0,1,3,0v.73a1.51,1.51,0,0,1-1.5,1.5" transform="translate(0 0)"/><path class="cls-5" d="M353.54,79V76.79c0-3.74-3.56-6.8-7.92-6.8s-7.92,3.06-7.92,6.8V79Z" transform="translate(0 0)"/><path class="cls-6" d="M343.85,77.2V70.4H343c-3.06.94-5.27,3.45-5.27,6.39V79h6.15Z" transform="translate(0 0)"/><path class="cls-6" d="M353.54,79V76.79c0-2.94-2.21-5.45-5.27-6.39h-1.15V79Z" transform="translate(0 0)"/><path class="cls-4" d="M338.45,79h-1.5V76.79A6.6,6.6,0,0,1,337.2,75l1.44.41a5.08,5.08,0,0,0-.2,1.4Z" transform="translate(0 0)"/><path class="cls-4" d="M339.14,74.21l-1.31-.74a7.72,7.72,0,0,1,1.63-2l1,1.13a6.23,6.23,0,0,0-1.31,1.6" transform="translate(0 0)"/><path class="cls-4" d="M354.29,79h-1.5V76.79c0-3.33-3.22-6-7.17-6a8,8,0,0,0-4.1,1.1l-.77-1.29a9.53,9.53,0,0,1,4.87-1.31c4.78,0,8.67,3.39,8.67,7.55Z" transform="translate(0 0)"/><polygon class="cls-7" points="347.01 71 345.47 72.05 343.9 71 343.9 66.74 347.01 66.74 347.01 71"/><path class="cls-4" d="M345.35,73l-2.2-1.56V66h4.61v5.42Zm-.7-2.34.75.53.86-.55v-3.1h-1.61Z" transform="translate(0 0)"/><path class="cls-7" d="M348,68.94l-1.77.8a1.48,1.48,0,0,1-1.19,0l-2-.83a5,5,0,0,1-2.72-2.79,5.3,5.3,0,0,1-.37-1.94V59.87a5.51,5.51,0,0,1,11,0v4.33a5.28,5.28,0,0,1-.37,1.94l0,.07A5,5,0,0,1,348,68.94" transform="translate(0 0)"/><path class="cls-4" d="M345.6,70.61a2.25,2.25,0,0,1-.87-.18l-2-.83a5.8,5.8,0,0,1-3.13-3.2,6,6,0,0,1-.42-2.21V59.87a6.26,6.26,0,0,1,12.52,0v4.33a6,6,0,0,1-.42,2.21,5.79,5.79,0,0,1-3,3.21l-.31-.68.31.68-1.77.8a2.23,2.23,0,0,1-.92.2m-.13-15.51a4.76,4.76,0,0,0-4.76,4.76v4.33a4.53,4.53,0,0,0,.32,1.67,4.28,4.28,0,0,0,2.31,2.37l2,.83a.74.74,0,0,0,.59,0l1.77-.79a4.24,4.24,0,0,0,2.22-2.33,4.62,4.62,0,0,0,.34-1.73V59.87a4.76,4.76,0,0,0-4.76-4.76" transform="translate(0 0)"/><path class="cls-4" d="M342.67,56.23h-1.5V54.86a2.86,2.86,0,0,1,2-2.72l.27-.09.47,1.43-.27.09a1.36,1.36,0,0,0-.94,1.29Z" transform="translate(0 0)"/><path class="cls-4" d="M344.41,56.8h-1.5V54.86a2.86,2.86,0,0,1,2-2.72l.27-.09.47,1.43-.27.09a1.36,1.36,0,0,0-.94,1.29Z" transform="translate(0 0)"/><path class="cls-4" d="M346.14,57.38h-1.5V54.86a2.86,2.86,0,0,1,2-2.72l.27-.09.47,1.43-.27.09a1.36,1.36,0,0,0-.94,1.29Z" transform="translate(0 0)"/><path class="cls-4" d="M347.87,56.8h-1.5V54.86a2.86,2.86,0,0,1,2-2.72l.27-.09.47,1.43-.27.09a1.36,1.36,0,0,0-.94,1.29Z" transform="translate(0 0)"/><path class="cls-4" d="M349.61,56.23h-1.5V54.86a2.86,2.86,0,0,1,2-2.72l.27-.09.47,1.43-.27.09a1.36,1.36,0,0,0-.94,1.29Z" transform="translate(0 0)"/><polygon class="cls-4" points="347.09 65.03 343.84 65.03 343.84 63.52 345.59 63.52 345.59 59.87 347.09 59.87 347.09 65.03"/><path class="cls-4" d="M345.95,67.81h-3v-1.5h3a3.86,3.86,0,0,0,2.14-.64l.91,1.2a5.45,5.45,0,0,1-3,.95" transform="translate(0 0)"/><path class="cls-4" d="M342.45,60.64H341a2.25,2.25,0,0,1,.67-1.61,2.33,2.33,0,0,1,3.21,0l-1.06,1.06a.79.79,0,0,0-1.09,0,.77.77,0,0,0-.23.55" transform="translate(0 0)"/><rect class="cls-4" x="342.88" y="59.71" width="0.69" height="1.5"/><path class="cls-4" d="M350.2,60.64h-1.5a.77.77,0,0,0-.23-.55.79.79,0,0,0-1.09,0L346.32,59a2.32,2.32,0,0,1,3.21,0,2.25,2.25,0,0,1,.67,1.61" transform="translate(0 0)"/><rect class="cls-4" x="347.58" y="59.71" width="0.69" height="1.5"/><path class="cls-4" d="M345.62,83.93a18,18,0,1,1,7-34.63l-.58,1.38a16.54,16.54,0,1,0,6.23,4.61l1.15-1a18,18,0,0,1-13.81,29.61" transform="translate(0 0)"/><path class="cls-4" d="M357.62,54.54c-.25-.26-.51-.52-.77-.77l1-1.1c.29.27.57.55.85.83Z" transform="translate(0 0)"/><path class="cls-4" d="M355.62,52.74a16.55,16.55,0,0,0-2.31-1.47l.7-1.33a18.09,18.09,0,0,1,2.51,1.61Z" transform="translate(0 0)"/><path class="cls-6" d="M271.89,57.65h-48a2.82,2.82,0,0,0-2.82,2.82v51.88a1.74,1.74,0,0,0,1.74,1.74H275V60.79a3.14,3.14,0,0,0-3.14-3.14" transform="translate(0 0)"/><path class="cls-4" d="M275,114.84H224.2a3.91,3.91,0,0,1-3.9-3.9V62.75a5.85,5.85,0,0,1,5.85-5.85H243v1.5H226.15a4.35,4.35,0,0,0-4.35,4.35v48.19a2.41,2.41,0,0,0,2.4,2.4H275Z" transform="translate(0 0)"/><g class="cls-9"><g class="cls-17"><path class="cls-11" d="M128.68,153.15H151V100h0v-.43h-.3l-6.2-8.71H128.68V88.27H130v-3.4h3l-6.57-4.79.44-.61-1.68-1.22v64.54h-5.32l.9,5.48a5.92,5.92,0,0,0,4.76,4.88Z" transform="translate(0 0)"/></g></g><path class="cls-3" d="M235.65,148.17H129a1,1,0,0,1-1-1V71.07a1,1,0,0,1,1-1H235.65a1,1,0,0,1,1,1v76.1a1,1,0,0,1-1,1" transform="translate(0 0)"/><path class="cls-4" d="M129,148.92a1.75,1.75,0,0,1-1.75-1.75V71.07A1.75,1.75,0,0,1,129,69.32h99.66v1.5H129a.25.25,0,0,0-.25.25v76.1a.25.25,0,0,0,.25.25Z" transform="translate(0 0)"/><rect class="cls-7" x="133.27" y="76.21" width="97.51" height="63.38"/><path class="cls-7" d="M234.75,152.51H128.69a5.2,5.2,0,0,1-5.13-4.36l-.76-4.61H172l1.88,2.7h13.58l2-2.7h51.78l-.66,4a5.92,5.92,0,0,1-5.84,5" transform="translate(0 0)"/><path class="cls-4" d="M234.75,153.26H128.69a5.93,5.93,0,0,1-5.87-5l-.9-5.48h50.43l1.88,2.7h12.82l2-2.7h40.16v1.5H189.83l-2,2.7H173.45l-1.88-2.7H123.69l.61,3.74a4.43,4.43,0,0,0,4.39,3.73H234.75Z" transform="translate(0 0)"/><rect class="cls-4" x="128.69" y="151.76" width="106.06" height="1.5"/><polygon class="cls-7" points="192.08 113.75 171.93 113.75 171.93 93.55 182 85.88 192.08 93.55 192.08 113.75"/><path class="cls-4" d="M182,130.37A25.54,25.54,0,0,1,161.19,90l1.22.87a24.07,24.07,0,1,0,39.56.46l1.24-.84a25.66,25.66,0,0,1,2.35,4.34A25.54,25.54,0,0,1,182,130.37" transform="translate(0 0)"/><path class="cls-6" d="M189.62,123.07s1.69,2.85.69,4.57-4.31,1.68-4.31,1.68-1.69-2.85-.69-4.57,4.31-1.68,4.31-1.68" transform="translate(0 0)"/><path class="cls-6" d="M195.8,131.67s-1.43-3.2-3.85-3.64-4.89,2-4.89,2,1.43,3.2,3.85,3.64,4.89-2,4.89-2" transform="translate(0 0)"/><path class="cls-6" d="M197.28,116.94s2.89,1.62,2.88,3.61-2.9,3.6-2.9,3.6-2.89-1.62-2.88-3.61,2.9-3.61,2.9-3.61" transform="translate(0 0)"/><path class="cls-6" d="M207.38,121.2s-2.84-2.06-5.15-1.23-3.22,4.21-3.22,4.21,2.84,2.06,5.15,1.24,3.22-4.21,3.22-4.21" transform="translate(0 0)"/><path class="cls-6" d="M200.85,108.23s3.31,0,4.3,1.69-.71,4.57-.71,4.57-3.31,0-4.3-1.69.71-4.57.71-4.57" transform="translate(0 0)"/><path class="cls-6" d="M212.17,106.34s-3.49-.36-5.08,1.51-.68,5.25-.68,5.25,3.49.36,5.08-1.5.68-5.26.68-5.26" transform="translate(0 0)"/><path class="cls-6" d="M199.4,98.54s2.85-1.69,4.57-.69,1.67,4.31,1.67,4.31-2.85,1.69-4.57.69-1.67-4.31-1.67-4.31" transform="translate(0 0)"/><path class="cls-6" d="M208.9,91.08s-3.2,1.43-3.65,3.84,2,4.89,2,4.89,3.2-1.43,3.65-3.84-2-4.89-2-4.89" transform="translate(0 0)"/><path class="cls-6" d="M200.28,83.68s-2.06,2.84-1.24,5.15,4.21,3.22,4.21,3.22,2.06-2.84,1.24-5.15-4.21-3.22-4.21-3.22" transform="translate(0 0)"/><path class="cls-6" d="M174.45,123.07s-1.69,2.85-.69,4.57,4.31,1.68,4.31,1.68,1.69-2.85.69-4.57-4.31-1.68-4.31-1.68" transform="translate(0 0)"/><path class="cls-6" d="M168.24,131.67s1.43-3.2,3.85-3.64,4.89,2,4.89,2-1.43,3.2-3.85,3.64-4.89-2-4.89-2" transform="translate(0 0)"/><path class="cls-6" d="M166.79,116.94s-2.89,1.62-2.88,3.61,2.89,3.6,2.89,3.6,2.89-1.62,2.89-3.61-2.9-3.61-2.9-3.61" transform="translate(0 0)"/><path class="cls-6" d="M156.67,121.2s2.84-2.06,5.15-1.23,3.22,4.21,3.22,4.21-2.84,2.06-5.15,1.24-3.22-4.21-3.22-4.21" transform="translate(0 0)"/><path class="cls-6" d="M163.19,108.23s-3.31,0-4.3,1.69.71,4.57.71,4.57,3.31,0,4.3-1.69-.71-4.57-.71-4.57" transform="translate(0 0)"/><path class="cls-6" d="M151.88,106.34s3.49-.36,5.08,1.51.68,5.25.68,5.25-3.49.36-5.08-1.5-.68-5.26-.68-5.26" transform="translate(0 0)"/><path class="cls-6" d="M164.64,98.54s-2.85-1.69-4.57-.69-1.67,4.31-1.67,4.31,2.85,1.69,4.57.69,1.67-4.31,1.67-4.31" transform="translate(0 0)"/><path class="cls-6" d="M155.15,91.08s3.2,1.43,3.65,3.84-2,4.89-2,4.89-3.2-1.43-3.65-3.84,2-4.89,2-4.89" transform="translate(0 0)"/><path class="cls-6" d="M164.74,82s2.06,2.84,1.24,5.15-4.21,3.22-4.21,3.22-2.06-2.84-1.24-5.15S164.74,82,164.74,82" transform="translate(0 0)"/><path class="cls-4" d="M186.07,130.06h-.49l-.21-.36c-.2-.33-1.88-3.28-.7-5.33s4.57-2.05,5-2h.42l.21.36c.2.33,1.88,3.28.7,5.33s-4.27,2-4.9,2m3.11-6.24c-1,.06-2.68.35-3.22,1.29s0,2.55.49,3.43c1-.06,2.68-.35,3.22-1.29s0-2.55-.48-3.43" transform="translate(0 0)"/><path class="cls-4" d="M191.5,134.51a4,4,0,0,1-.72-.06c-2.77-.51-4.33-3.93-4.39-4.07l-.21-.47.36-.36c.11-.11,2.79-2.76,5.56-2.25s4.33,3.93,4.39,4.08l.21.47-.36.37c-.1.1-2.34,2.31-4.83,2.31m-3.5-4.27c.47.83,1.56,2.46,3,2.73s3-.77,3.82-1.47c-.47-.83-1.57-2.47-3.05-2.74s-3.09.87-3.82,1.47" transform="translate(0 0)"/><path class="cls-4" d="M197.27,125l-.37-.2c-.34-.19-3.27-1.9-3.27-4.27s2.94-4.07,3.28-4.26l.37-.2.37.2c.34.19,3.27,1.91,3.27,4.27s-2.95,4.07-3.28,4.26Zm0-7.2c-.82.54-2.14,1.64-2.14,2.73s1.33,2.19,2.14,2.73c.82-.54,2.14-1.64,2.14-2.72s-1.34-2.2-2.14-2.73" transform="translate(0 0)"/><path class="cls-4" d="M203,126.35a8.65,8.65,0,0,1-4.42-1.57l-.42-.3.13-.5c0-.15,1-3.78,3.69-4.72s5.71,1.24,5.84,1.34l.42.3-.13.5c0,.15-1,3.78-3.69,4.72a4.25,4.25,0,0,1-1.43.24m-3.09-2.5c.82.48,2.59,1.35,4,.85s2.2-2.16,2.58-3.18c-.82-.48-2.59-1.35-4-.85s-2.2,2.16-2.58,3.18" transform="translate(0 0)"/><path class="cls-4" d="M204.41,115.24c-.58,0-3.77-.09-4.91-2.06s.52-5,.71-5.33l.22-.36h.42c.37,0,3.78,0,5,2.07s-.52,5-.71,5.33l-.22.36h-.47ZM201.29,109c-.44.88-1,2.49-.5,3.43s2.23,1.24,3.21,1.3c.44-.88,1-2.49.5-3.43s-2.25-1.24-3.21-1.3" transform="translate(0 0)"/><path class="cls-4" d="M207.11,113.88c-.44,0-.73,0-.77,0l-.51-.05-.13-.5c0-.15-1-3.79.84-5.94s5.57-1.78,5.73-1.76l.51.05.13.5c0,.15,1,3.79-.84,5.94-1.35,1.58-3.73,1.8-5,1.8m-.09-1.5c.94,0,2.92-.12,3.9-1.27s.8-3.11.64-4c-.94,0-2.91.12-3.89,1.27s-.83,3-.64,4" transform="translate(0 0)"/><path class="cls-4" d="M202.39,103.92a3.34,3.34,0,0,1-1.7-.42c-2-1.19-2.05-4.59-2-5v-.42l.36-.21c.33-.19,3.29-1.88,5.33-.69s2.05,4.59,2,5v.42l-.36.21a8.07,8.07,0,0,1-3.64,1.11M200.16,99c.06,1,.35,2.68,1.28,3.22s2.57-.06,3.43-.48c-.06-1-.35-2.68-1.29-3.22s-2.57.06-3.43.48" transform="translate(0 0)"/><path class="cls-4" d="M207.12,100.71l-.37-.36c-.11-.11-2.75-2.79-2.24-5.56s3.93-4.32,4.08-4.39l.47-.21.36.37c.11.11,2.75,2.79,2.24,5.56s-3.93,4.33-4.08,4.39ZM208.73,92c-.83.47-2.46,1.56-2.74,3s.86,3.09,1.47,3.82c.83-.47,2.46-1.56,2.74-3s-.86-3.09-1.47-3.82" transform="translate(0 0)"/><path class="cls-4" d="M203.55,92.91l-.5-.13c-.15,0-3.78-1-4.72-3.7s1.25-5.71,1.34-5.84l.3-.42.5.13c.15,0,3.78,1,4.72,3.69s-1.25,5.71-1.34,5.84Zm-2.95-8.34c-.48.82-1.36,2.59-.85,4s2.15,2.2,3.18,2.58c.48-.82,1.36-2.59.85-4s-2.15-2.2-3.18-2.58" transform="translate(0 0)"/><path class="cls-4" d="M178,130.06c-.62,0-3.77-.1-4.9-2s.5-5,.7-5.33l.21-.36h.42c.39,0,3.79,0,5,2s-.5,5-.7,5.33l-.21.36H178Zm-3.11-6.23c-.44.88-1,2.5-.48,3.43s2.26,1.23,3.22,1.29c.44-.88,1-2.5.48-3.43s-2.26-1.23-3.22-1.29" transform="translate(0 0)"/><path class="cls-4" d="M172.54,134.51c-2.49,0-4.73-2.21-4.83-2.31l-.36-.37.21-.47c.07-.14,1.63-3.57,4.39-4.07s5.45,2.14,5.56,2.25l.36.36-.21.47c-.07.15-1.63,3.57-4.4,4.07a4,4,0,0,1-.72.07m-3.37-3c.73.61,2.33,1.75,3.82,1.48s2.58-1.91,3-2.74c-.73-.61-2.34-1.75-3.82-1.47s-2.51,1.78-3.05,2.73" transform="translate(0 0)"/><path class="cls-4" d="M166.8,125l-.37-.2c-.33-.19-3.28-1.89-3.28-4.26s2.93-4.08,3.27-4.27l.37-.2.37.2c.33.19,3.28,1.89,3.28,4.26s-2.93,4.08-3.27,4.27Zm0-7.2c-.82.55-2.14,1.65-2.14,2.73s1.34,2.19,2.14,2.72c.82-.55,2.14-1.65,2.14-2.73s-1.34-2.19-2.14-2.73" transform="translate(0 0)"/><path class="cls-4" d="M161.06,126.35a4.25,4.25,0,0,1-1.43-.24c-2.65-.94-3.65-4.57-3.69-4.72l-.13-.5.42-.3c.13-.09,3.2-2.27,5.84-1.33s3.65,4.57,3.69,4.72l.13.5-.42.3a8.65,8.65,0,0,1-4.42,1.57m-3.5-4.84c.33.89,1.15,2.69,2.57,3.19s3.07-.28,4-.84c-.33-.89-1.15-2.69-2.57-3.19s-3.07.28-4,.84" transform="translate(0 0)"/><path class="cls-4" d="M159.64,115.24h-.47l-.21-.36c-.2-.33-1.89-3.28-.71-5.33s4.58-2.06,5-2.07h.42l.22.36c.2.33,1.89,3.28.71,5.33s-4.33,2.06-4.91,2.06m3.11-6.24c-1,.06-2.68.36-3.21,1.3s.07,2.57.5,3.43c1-.06,2.67-.36,3.21-1.3s-.06-2.55-.5-3.43" transform="translate(0 0)"/><path class="cls-4" d="M156.94,113.88c-1.23,0-3.61-.22-5-1.8-1.83-2.14-.88-5.78-.84-5.94l.13-.5.51-.05c.16,0,3.9-.38,5.73,1.76s.88,5.78.84,5.93l-.13.5-.51.05s-.34,0-.78,0m-4.45-6.82c-.16.94-.34,2.9.64,4s2.76,1.27,3.89,1.27c.16-.93.34-2.9-.64-4s-2.93-1.26-3.89-1.27" transform="translate(0 0)"/><path class="cls-4" d="M161.65,103.92a8.08,8.08,0,0,1-3.63-1.11l-.36-.21v-.42c0-.38,0-3.78,2-5s5,.49,5.33.69l.36.21v.42c0,.38,0,3.78-2,5a3.33,3.33,0,0,1-1.7.42m-2.49-2.2c.88.44,2.5,1,3.43.48s1.23-2.24,1.29-3.22c-.88-.44-2.5-1-3.43-.48s-1.22,2.26-1.28,3.22" transform="translate(0 0)"/><path class="cls-4" d="M156.93,100.71l-.47-.21c-.14-.06-3.57-1.62-4.08-4.39s2.13-5.45,2.24-5.56l.36-.37.47.21c.15.06,3.57,1.62,4.08,4.39s-2.13,5.45-2.24,5.56ZM155.32,92c-.61.73-1.74,2.34-1.47,3.82s1.78,2.51,2.74,3c.61-.73,1.75-2.34,1.47-3.82s-1.91-2.58-2.74-3" transform="translate(0 0)"/><path class="cls-4" d="M161.47,91.22l-.3-.42c-.09-.13-2.28-3.19-1.34-5.84s4.57-3.65,4.72-3.69l.5-.13.3.42c.09.13,2.28,3.19,1.34,5.84S162.12,91,162,91.08Zm3-8.34c-.89.33-2.68,1.16-3.18,2.58s.37,3.19.85,4c.89-.33,2.68-1.16,3.18-2.58s-.37-3.19-.85-4" transform="translate(0 0)"/><rect class="cls-4" x="176.45" y="96.47" width="1.5" height="16.61"/><rect class="cls-4" x="181.46" y="96.47" width="1.5" height="16.61"/><rect class="cls-4" x="186.46" y="96.47" width="1.5" height="16.61"/><polygon class="cls-4" points="192.83 114.5 171.18 114.5 171.18 96.47 172.68 96.47 172.68 113 191.33 113 191.33 96.47 192.83 96.47 192.83 114.5"/><polygon class="cls-4" points="195.66 97.54 182 86.83 168.39 97.45 167.46 96.27 182.01 84.92 196.58 96.36 195.66 97.54"/><path class="cls-4" d="M182.21,94a2.22,2.22,0,1,1,2.22-2.22A2.22,2.22,0,0,1,182.21,94m0-2.94a.72.72,0,1,0,.72.72.72.72,0,0,0-.72-.72" transform="translate(0 0)"/><rect class="cls-4" x="167.93" y="113" width="28.2" height="1.5"/><rect class="cls-4" x="177.25" y="116.19" width="9.57" height="1.5"/><rect class="cls-4" x="168.93" y="113.75" width="1.5" height="3.19"/><rect class="cls-4" x="193.05" y="113.75" width="1.5" height="3.19"/><g class="cls-9"><g class="cls-18"><path class="cls-11" d="M234.75,152.51a5.92,5.92,0,0,0,5.84-5l.66-4h-4.6V71.07a1,1,0,0,0-1-1h-7v-.75h-.14l-.1,80a3.9,3.9,0,0,0,3.9,3.91h2.44Z" transform="translate(0 0)"/></g></g><path class="cls-7" d="M272.93,57.53H226.16a5,5,0,0,1,5.11,5.11l-.11,86.71a3.15,3.15,0,0,0,3.15,3.16H284a5,5,0,0,1-4.9-4.9V63.66a6.14,6.14,0,0,0-6.13-6.14" transform="translate(0 0)"/><rect class="cls-4" x="263.32" y="56.78" width="4.35" height="1.5"/><path class="cls-4" d="M263,153.26H234.3a3.9,3.9,0,0,1-3.9-3.91l.11-86.71a4.27,4.27,0,0,0-4.36-4.36v-1.5h34.79v1.5H230.11a6,6,0,0,1,1.9,4.36l-.11,86.71a2.4,2.4,0,0,0,2.4,2.41H263Z" transform="translate(0 0)"/><path class="cls-4" d="M279.81,92.6h-1.5V63.66a5.39,5.39,0,0,0-5.39-5.38H270v-1.5h2.9a6.89,6.89,0,0,1,6.89,6.88Z" transform="translate(0 0)"/><rect class="cls-4" x="238.57" y="90.56" width="32.91" height="1.5"/><rect class="cls-4" x="238.57" y="76.56" width="32.91" height="1.5"/><rect class="cls-4" x="238.57" y="95.72" width="32.91" height="1.5"/><rect class="cls-4" x="238.57" y="100.88" width="32.91" height="1.5"/><rect class="cls-4" x="238.57" y="106.05" width="32.91" height="1.5"/><rect class="cls-4" x="238.57" y="111.21" width="32.91" height="1.5"/><rect class="cls-4" x="235.98" y="137.79" width="16.63" height="1.5"/><polygon class="cls-3" points="263.88 139.68 261.2 139.68 261.2 148.06 263.88 146.97 266.56 148.06 266.56 139.68 263.88 139.68"/><path class="cls-4" d="M267.31,149.17l-3.43-1.39-3.43,1.39V138.93h6.87Zm-3.43-3,1.93.79v-6.51h-3.87v6.51Z" transform="translate(0 0)"/><path class="cls-7" d="M270.63,137.13c0,.87-.8,1.58-1.12,2.33s-.27,1.85-.86,2.44-1.65.54-2.44.86-1.46,1.12-2.33,1.12-1.58-.8-2.33-1.12-1.85-.27-2.44-.86-.54-1.65-.86-2.44-1.12-1.46-1.12-2.33.8-1.58,1.12-2.33.27-1.85.86-2.44,1.65-.54,2.44-.86,1.46-1.12,2.33-1.12,1.58.8,2.33,1.12,1.85.27,2.44.86.54,1.65.86,2.44,1.12,1.46,1.12,2.33" transform="translate(0 0)"/><path class="cls-4" d="M263.88,144.63a3.48,3.48,0,0,1-1.93-.77,4.49,4.49,0,0,0-.69-.41,4.81,4.81,0,0,0-.82-.22,2.75,2.75,0,0,1-2.67-2.67,4.84,4.84,0,0,0-.22-.82,4.51,4.51,0,0,0-.41-.69,2.81,2.81,0,0,1,0-3.86,4.42,4.42,0,0,0,.41-.69,4.78,4.78,0,0,0,.22-.82,2.76,2.76,0,0,1,2.67-2.67,4.76,4.76,0,0,0,.82-.22,4.44,4.44,0,0,0,.69-.41,2.82,2.82,0,0,1,3.87,0,4.49,4.49,0,0,0,.69.41,4.82,4.82,0,0,0,.81.22,2.76,2.76,0,0,1,2.67,2.67,4.84,4.84,0,0,0,.22.82,4.47,4.47,0,0,0,.41.69,2.81,2.81,0,0,1,0,3.86,4.45,4.45,0,0,0-.41.69,4.78,4.78,0,0,0-.22.82,2.76,2.76,0,0,1-2.67,2.67,4.75,4.75,0,0,0-.82.22,4.44,4.44,0,0,0-.69.41,3.48,3.48,0,0,1-1.93.77m0-13.5a2.37,2.37,0,0,0-1.1.52,5.61,5.61,0,0,1-.94.54,5.89,5.89,0,0,1-1.09.3,1.39,1.39,0,0,0-1.51,1.51,5.89,5.89,0,0,1-.3,1.09,5.58,5.58,0,0,1-.55.95,1.43,1.43,0,0,0,0,2.2,5.64,5.64,0,0,1,.55.95,6,6,0,0,1,.3,1.09,1.38,1.38,0,0,0,1.51,1.51,6,6,0,0,1,1.09.3,5.65,5.65,0,0,1,.95.55,1.43,1.43,0,0,0,2.2,0,5.61,5.61,0,0,1,.94-.54,5.92,5.92,0,0,1,1.09-.3,1.39,1.39,0,0,0,1.51-1.51,5.94,5.94,0,0,1,.3-1.09,5.6,5.6,0,0,1,.54-.95,1.43,1.43,0,0,0,0-2.2,5.62,5.62,0,0,1-.55-.95,5.94,5.94,0,0,1-.3-1.09,1.39,1.39,0,0,0-1.51-1.51,5.94,5.94,0,0,1-1.08-.3,5.65,5.65,0,0,1-.95-.55,2.37,2.37,0,0,0-1.1-.52" transform="translate(0 0)"/><path class="cls-4" d="M263.88,144.63a3.48,3.48,0,0,1-1.93-.77,4.49,4.49,0,0,0-.69-.41,4.81,4.81,0,0,0-.82-.22,2.75,2.75,0,0,1-2.67-2.67,4.84,4.84,0,0,0-.22-.82,4.51,4.51,0,0,0-.41-.69,2.81,2.81,0,0,1,0-3.86,4.42,4.42,0,0,0,.41-.69,4.78,4.78,0,0,0,.22-.82,2.76,2.76,0,0,1,2.67-2.67,4.76,4.76,0,0,0,.82-.22,4.44,4.44,0,0,0,.69-.41,2.82,2.82,0,0,1,3.87,0,4.49,4.49,0,0,0,.69.41,4.82,4.82,0,0,0,.81.22,2.76,2.76,0,0,1,2.67,2.67,4.84,4.84,0,0,0,.22.82,4.47,4.47,0,0,0,.41.69,2.81,2.81,0,0,1,0,3.86,4.45,4.45,0,0,0-.41.69,4.78,4.78,0,0,0-.22.82,2.76,2.76,0,0,1-2.67,2.67,4.75,4.75,0,0,0-.82.22,4.44,4.44,0,0,0-.69.41,3.48,3.48,0,0,1-1.93.77m0-13.5a2.37,2.37,0,0,0-1.1.52,5.61,5.61,0,0,1-.94.54,5.89,5.89,0,0,1-1.09.3,1.39,1.39,0,0,0-1.51,1.51,5.89,5.89,0,0,1-.3,1.09,5.58,5.58,0,0,1-.55.95,1.43,1.43,0,0,0,0,2.2,5.64,5.64,0,0,1,.55.95,6,6,0,0,1,.3,1.09,1.38,1.38,0,0,0,1.51,1.51,6,6,0,0,1,1.09.3,5.65,5.65,0,0,1,.95.55,1.43,1.43,0,0,0,2.2,0,5.61,5.61,0,0,1,.94-.54,5.92,5.92,0,0,1,1.09-.3,1.39,1.39,0,0,0,1.51-1.51,5.94,5.94,0,0,1,.3-1.09,5.6,5.6,0,0,1,.54-.95,1.43,1.43,0,0,0,0-2.2,5.62,5.62,0,0,1-.55-.95,5.94,5.94,0,0,1-.3-1.09,1.39,1.39,0,0,0-1.51-1.51,5.94,5.94,0,0,1-1.08-.3,5.65,5.65,0,0,1-.95-.55,2.37,2.37,0,0,0-1.1-.52" transform="translate(0 0)"/><path class="cls-7" d="M46.89,78.71v73a.79.79,0,0,0,.79.79h12a.79.79,0,0,0,.79-.79v-73a.79.79,0,0,0-.79-.79h-12a.79.79,0,0,0-.79.79" transform="translate(0 0)"/><path class="cls-4" d="M61.21,152.37h-1.5V78.76a.09.09,0,0,0-.09-.09H47.73a.09.09,0,0,0-.09.09V95.67h-1.5V78.76a1.59,1.59,0,0,1,1.59-1.59H59.62a1.59,1.59,0,0,1,1.59,1.59Z" transform="translate(0 0)"/><rect class="cls-4" x="55.07" y="118.24" width="5.39" height="1.5"/><rect class="cls-4" x="55.07" y="125.54" width="5.39" height="1.5"/><rect class="cls-4" x="55.07" y="132.84" width="5.39" height="1.5"/><rect class="cls-4" x="55.07" y="140.14" width="5.39" height="1.5"/><rect class="cls-4" x="55.07" y="147.44" width="5.39" height="1.5"/><rect class="cls-4" x="55.07" y="110.94" width="5.39" height="1.5"/><rect class="cls-4" x="55.07" y="103.64" width="5.39" height="1.5"/><rect class="cls-4" x="55.07" y="96.34" width="5.39" height="1.5"/><rect class="cls-4" x="55.07" y="89.04" width="5.39" height="1.5"/><rect class="cls-4" x="55.07" y="81.74" width="5.39" height="1.5"/><g class="cls-9"><g class="cls-19"><path class="cls-11" d="M279.06,147.6V94.91h-2.61a3.81,3.81,0,0,0-3.8,3.8v53.79h1.5v-.43a1.35,1.35,0,0,0,.6.15h7.69a5,5,0,0,1-3.38-4.62" transform="translate(0 0)"/></g></g><path class="cls-3" d="M291.18,152.22H276.75a1.35,1.35,0,0,1-1.36-1.35V97a1.35,1.35,0,0,1,1.36-1.35h14.43A1.35,1.35,0,0,1,292.54,97v53.85a1.35,1.35,0,0,1-1.35,1.35" transform="translate(0 0)"/><path class="cls-5" d="M303.5,152.22h-6.87a1.35,1.35,0,0,1-1.36-1.35V89.17a1.35,1.35,0,0,1,1.36-1.35h6.88a1.35,1.35,0,0,1,1.35,1.35v61.7a1.35,1.35,0,0,1-1.35,1.35" transform="translate(0 0)"/><rect class="cls-20" x="298.6" y="100.67" width="3.33" height="40.7"/><path class="cls-7" d="M321.17,152.22H309a1.35,1.35,0,0,1-1.35-1.35V95A1.35,1.35,0,0,1,309,93.66h12.13A1.35,1.35,0,0,1,322.53,95v55.86a1.35,1.35,0,0,1-1.35,1.35" transform="translate(0 0)"/><path class="cls-4" d="M293.29,152.51h-1.5V98.72a2.31,2.31,0,0,0-2.31-2.3h-11a2.31,2.31,0,0,0-2.3,2.3v53.79h-1.5V98.72a3.81,3.81,0,0,1,3.8-3.8h11a3.81,3.81,0,0,1,3.81,3.8Z" transform="translate(0 0)"/><path class="cls-4" d="M305.61,152.51h-1.5V91.11a2.55,2.55,0,0,0-2.55-2.55h-3.23a2.31,2.31,0,0,0-2.31,2.3v61.64h-1.5V90.87a3.81,3.81,0,0,1,3.81-3.8h3.23a4.05,4.05,0,0,1,4,4Z" transform="translate(0 0)"/><path class="cls-4" d="M308.43,152.51h-1.5V96.71a3.81,3.81,0,0,1,3.8-3.81h8.73a3.81,3.81,0,0,1,3.81,3.81v25.79h-1.5V96.71a2.31,2.31,0,0,0-2.31-2.31h-8.73a2.31,2.31,0,0,0-2.3,2.31Z" transform="translate(0 0)"/><rect class="cls-4" x="279.59" y="101.67" width="8.76" height="1.5"/><rect class="cls-4" x="279.59" y="108.68" width="8.76" height="1.5"/><rect class="cls-4" x="279.59" y="115.69" width="8.76" height="1.5"/><rect class="cls-4" x="279.59" y="122.7" width="8.76" height="1.5"/><rect class="cls-4" x="279.59" y="129.71" width="4.76" height="1.5"/><rect class="cls-4" x="279.59" y="136.72" width="8.76" height="1.5"/><rect class="cls-4" x="279.59" y="143.73" width="8.76" height="1.5"/><path class="cls-3" d="M320.36,104.17a5.26,5.26,0,1,1-5.26-5.26,5.26,5.26,0,0,1,5.26,5.26" transform="translate(0 0)"/><path class="cls-4" d="M266.41,51.81a20.45,20.45,0,1,1,8-39.28l-.58,1.38a19,19,0,1,0,7.14,5.28l1.15-1a20.45,20.45,0,0,1-15.66,33.59" transform="translate(0 0)"/><path class="cls-4" d="M280.17,18.34q-.43-.45-.89-.88l1-1.1q.49.46,1,.95Z" transform="translate(0 0)"/><path class="cls-4" d="M277.87,16.27a19.11,19.11,0,0,0-2.64-1.69l.7-1.33a20.42,20.42,0,0,1,2.85,1.82Z" transform="translate(0 0)"/><path class="cls-3" d="M275.39,46.62V44.07c0-4.24-4-7.7-9-7.7s-9,3.47-9,7.7v2.55Z" transform="translate(0 0)"/><rect class="cls-6" x="257.57" y="43.96" width="17.82" height="1.6"/><path class="cls-4" d="M258.18,46.62h-1.5V44.07a7.39,7.39,0,0,1,.28-2l1.44.41a5.87,5.87,0,0,0-.23,1.62Z" transform="translate(0 0)"/><path class="cls-4" d="M259,41.09l-1.31-.74a8.64,8.64,0,0,1,1.83-2.22l1,1.13A7.1,7.1,0,0,0,259,41.09" transform="translate(0 0)"/><path class="cls-4" d="M276.14,46.62h-1.5V44.07c0-3.83-3.69-7-8.23-7a9.22,9.22,0,0,0-4.7,1.26l-.76-1.29a10.72,10.72,0,0,1,5.47-1.47c5.36,0,9.73,3.79,9.73,8.45Z" transform="translate(0 0)"/><path class="cls-3" d="M260.11,31.34h-.23a.83.83,0,0,1-.83-.83l-.29-8.75c0-.95.43-1.18,1.17-1.77l1-.82c-2.67-1.66-2-3.05-2-3.05,1.23,1.84,7.93.47,11.82,1.07a2.09,2.09,0,0,1,1.76,1.8l.09.73c.76,0,1.38-.05,1.38.71l-.28,10.09a.84.84,0,0,1-.84.83Z" transform="translate(0 0)"/><path class="cls-4" d="M273,32.09H259.84a1.55,1.55,0,0,1-1.55-1.55L258,21.78a3.29,3.29,0,0,1,1.52-2.73A2.94,2.94,0,0,1,258.25,16l.17-.61,1,0,.21.29c.54.79,3.54.7,5.94.62a31.19,31.19,0,0,1,5.41.13,2.84,2.84,0,0,1,2.35,2.44V19a1.61,1.61,0,0,1,1.08.42,1.4,1.4,0,0,1,.39,1l-.29,10.14A1.55,1.55,0,0,1,273,32.09M260.19,17.62a5.74,5.74,0,0,0,1.16.91l1.15.72-2,.95a1.78,1.78,0,0,0-1,1.54l.29,8.79.32.07H273l.33-10.12H272l-.18-1.38a1.33,1.33,0,0,0-1.1-1.15,30,30,0,0,0-5.12-.11,22.75,22.75,0,0,1-5.42-.21" transform="translate(0 0)"/><path class="cls-7" d="M266.22,39.92h0a1.76,1.76,0,0,1-1.76-1.76V34.43a1.76,1.76,0,1,1,3.53,0v3.72a1.76,1.76,0,0,1-1.76,1.76" transform="translate(0 0)"/><path class="cls-4" d="M266.22,40.67a2.52,2.52,0,0,1-2.51-2.51V34.44a2.51,2.51,0,1,1,5,0v3.72a2.52,2.52,0,0,1-2.51,2.51m0-7.25a1,1,0,0,0-1,1v3.72a1,1,0,1,0,2,0V34.44a1,1,0,0,0-1-1" transform="translate(0 0)"/><path class="cls-7" d="M266.37,36.44h0a6.73,6.73,0,0,1-6.71-6.7V25.19c0-3.69,3-6,6.71-6s6.7,2.34,6.7,6v4.55a6.73,6.73,0,0,1-6.7,6.7" transform="translate(0 0)"/><path class="cls-4" d="M266.37,37.19a7.46,7.46,0,0,1-7.46-7.46V25.19c0-3.93,3.14-6.78,7.46-6.78s7.45,2.85,7.45,6.78v4.54a7.46,7.46,0,0,1-7.45,7.46m0-17.28c-3.51,0-6,2.17-6,5.28v4.54a6,6,0,1,0,11.91,0V25.19c0-3.11-2.45-5.28-6-5.28" transform="translate(0 0)"/><path class="cls-3" d="M273.45,20.71,271.71,20c.16-.18-.08-.42,0-.65.58-1.65-2.64-1-2.64-1s-3.71-1.53-8,1.65L259,23.14a12.56,12.56,0,0,0,11-2.6c.05,1.32.38,3.26,3.4,3.9V20.71Z" transform="translate(0 0)"/><path class="cls-4" d="M273.56,25.24a4.88,4.88,0,0,1-4.06-3.36,13.61,13.61,0,0,1-10.93,1.79l.43-1.44c.06,0,5.9,1.67,10.46-2.22l.35-.3.49.17a.8.8,0,0,1,.49.7c.05,1.18.63,2.67,3.08,3.18Z" transform="translate(0 0)"/><path class="cls-4" d="M263.63,29.76h-1.91a2.79,2.79,0,0,1,0-5.58h1.91a2.79,2.79,0,0,1,0,5.58m-1.91-4.08a1.25,1.25,0,0,0-1.25,1.25,1.27,1.27,0,0,0,1.25,1.33h1.91A1.25,1.25,0,0,0,264.88,27a1.27,1.27,0,0,0-1.25-1.33Z" transform="translate(0 0)"/><path class="cls-4" d="M271,29.76H269.1a2.79,2.79,0,0,1,0-5.58H271a2.79,2.79,0,0,1,0,5.58m-1.91-4.08a1.25,1.25,0,0,0-1.25,1.25,1.27,1.27,0,0,0,1.25,1.33H271A1.25,1.25,0,0,0,272.26,27,1.27,1.27,0,0,0,271,25.68Z" transform="translate(0 0)"/><rect class="cls-4" x="265.63" y="26.22" width="1.31" height="1.5"/><rect class="cls-4" x="262.01" y="26.22" width="1.34" height="1.5"/><rect class="cls-4" x="269.39" y="26.22" width="1.34" height="1.5"/><polygon class="cls-4" points="268 32.37 265.69 32.37 265.69 27.47 267.19 27.47 267.19 30.87 268 30.87 268 32.37"/><polygon class="cls-4" points="268.55 34.52 264.49 34.52 264.49 33.02 268.01 33.02 268.91 32.28 269.86 33.43 268.55 34.52"/><g class="cls-9"><g class="cls-21"><polygon class="cls-11" points="322.53 147.71 322.53 144.71 318.24 152.13 318.4 152.22 319.92 152.22 322.53 147.71"/><path class="cls-11" d="M319.73,127.53l.63,1.09-9.82,5.67-1.08-1.87-2.53,1.46v2.58l5.17,9,3.64-2.1-1.08-1.87,6.36-3.67a6.12,6.12,0,0,0,1.5,4V123.66l-2.08,1.2a2,2,0,0,0-.72,2.67" transform="translate(0 0)"/></g></g><rect class="cls-4" x="332.79" y="137.72" width="1.5" height="15.84" transform="translate(-28.15 186.16) rotate(-29.98)"/><rect class="cls-4" x="316.93" y="144.9" width="15.84" height="1.5" transform="translate(36.29 354.15) rotate(-60)"/><rect class="cls-3" x="311.23" y="131.55" width="16.92" height="6.77" transform="translate(-24.65 177.81) rotate(-29.98)"/><path class="cls-4" d="M313.78,143.12,309.65,136l16-9.2,4.13,7.16Zm-2.08-6.61,2.63,4.57,13.35-7.7L325,128.8Z" transform="translate(0 0)"/><rect class="cls-5" x="323.46" y="119.21" width="24.08" height="13.2" transform="translate(-17.98 184.49) rotate(-29.98)"/><rect class="cls-6" x="322.62" y="122.65" width="24.08" height="3.39" transform="translate(-17.36 183.87) rotate(-29.98)"/><path class="cls-4" d="M328.82,137.85a2,2,0,0,1-.51-.07,1.94,1.94,0,0,1-1.18-.91l-5.39-9.34a2,2,0,0,1,.72-2.67l20.46-11.81,7.35,12.73-20.46,11.81a2,2,0,0,1-1,.26m13.54-22.75-19.17,11.06a.46.46,0,0,0-.17.62l5.39,9.34a.46.46,0,0,0,.62.17l19.16-11.06Z" transform="translate(0 0)"/><rect class="cls-6" x="342.69" y="112.64" width="3.47" height="16.04" transform="translate(-14.22 188.21) rotate(-29.97)"/><rect class="cls-6" x="311.43" y="133.38" width="2.7" height="11.08" transform="translate(-27.56 174.94) rotate(-29.99)"/><path class="cls-4" d="M346.66,129.5l-8.77-15.19,4.31-2.48L351,127Zm-6.72-14.64,7.27,12.59,1.71-1-7.27-12.59Z" transform="translate(0 0)"/><path class="cls-4" d="M314.11,145.42l-6.29-10.9,3.64-2.1,6.29,10.9Zm-4.24-10.35,4.79,8.3,1-.6-4.79-8.3Z" transform="translate(0 0)"/><path class="cls-7" d="M334.61,137.72a5.42,5.42,0,1,1-5.42-5.42,5.42,5.42,0,0,1,5.42,5.42" transform="translate(0 0)"/><path class="cls-3" d="M331.44,137.72a2.25,2.25,0,1,1-2.25-2.25,2.25,2.25,0,0,1,2.25,2.25" transform="translate(0 0)"/><path class="cls-4" d="M329.19,143.89a6.17,6.17,0,1,1,6.17-6.17,6.17,6.17,0,0,1-6.17,6.17m0-10.83a4.67,4.67,0,1,0,4.67,4.67,4.67,4.67,0,0,0-4.67-4.67" transform="translate(0 0)"/><g class="cls-9"><g class="cls-22"><path class="cls-11" d="M46,150.7h-.75V122.47a1.81,1.81,0,0,0-1.81-1.81h-3v-.75h0v33.35h3A2.56,2.56,0,0,0,46,150.7" transform="translate(0 0)"/></g></g><path class="cls-7" d="M49.84,152.51H43.64a.45.45,0,0,1-.45-.45V104.23a.45.45,0,0,1,0-.19l3.1-5a.45.45,0,0,1,.82,0l3.1,5a.46.46,0,0,1,0,.19v47.82a.45.45,0,0,1-.45.45" transform="translate(0 0)"/><rect class="cls-3" x="43.19" y="105.76" width="7.1" height="42.17"/><path class="cls-4" d="M51,153.26h-8.6V103.93l3.41-5.66a1,1,0,0,1,.89-.52,1,1,0,0,1,.93.59L51,103.93Zm-7.1-1.5h5.6V104.34l-2.8-4.65-2.8,4.65Z" transform="translate(0 0)"/><rect class="cls-4" x="43.04" y="105.01" width="7.24" height="1.5"/><rect class="cls-4" x="42.87" y="147.18" width="7.73" height="1.5"/></g></g></svg>