<svg id="Layer_1" data-name="Layer 1" xmlns="http://www.w3.org/2000/svg" xmlns:xlink="http://www.w3.org/1999/xlink" viewBox="0 0 382.91 125.28"><defs><style>.cls-1{fill:none;}.cls-2{clip-path:url(#clip-path);}.cls-3{fill:#0686d8;}.cls-4{fill:#d2e9f7;}.cls-5{fill:#fff;}.cls-6{fill:#5fb0e5;}.cls-7{fill:#bfdff5;}.cls-8{fill:#7fc0ea;}.cls-9{fill:#e4f2fa;}.cls-10{fill:#9ecfef;}.cls-11{fill:#c5e2f5;}.cls-12{opacity:0.3;}.cls-13{clip-path:url(#clip-path-3);}.cls-14{fill:#03436c;}.cls-15{clip-path:url(#clip-path-4);}.cls-16{clip-path:url(#clip-path-5);}.cls-17{clip-path:url(#clip-path-6);}.cls-18{clip-path:url(#clip-path-7);}</style><clipPath id="clip-path"><rect class="cls-1" width="382.91" height="125.28"/></clipPath><clipPath id="clip-path-3"><rect class="cls-1" x="126.56" y="57.67" width="101.46" height="46.02"/></clipPath><clipPath id="clip-path-4"><rect class="cls-1" x="273.23" y="62.53" width="10.41" height="62"/></clipPath><clipPath id="clip-path-5"><rect class="cls-1" x="261.8" y="93.79" width="10.56" height="30.74"/></clipPath><clipPath id="clip-path-6"><rect class="cls-1" x="93.04" y="67.56" width="34.28" height="57.72"/></clipPath><clipPath id="clip-path-7"><rect class="cls-1" x="47.7" y="94.21" width="7.33" height="27.72"/></clipPath></defs><title>bg_top</title><g class="cls-2"><polygon class="cls-3" points="278.04 0 278.04 3 284.96 3 284.96 10.36 287.96 10.36 287.96 0 278.04 0"/><g class="cls-2"><path class="cls-4" d="M381.37,124.53h-73a.79.79,0,0,1-.79-.79v-12a.79.79,0,0,1,.79-.79h73a.79.79,0,0,1,.79.79v12a.79.79,0,0,1-.79.79"/><path class="cls-3" d="M381.32,125.28H308.41a1.59,1.59,0,0,1-1.59-1.59h1.5a.09.09,0,0,0,.09.09h72.91a.09.09,0,0,0,.09-.09V111.8a.09.09,0,0,0-.09-.09H331.71v-1.5h49.62a1.59,1.59,0,0,1,1.59,1.59v11.89a1.59,1.59,0,0,1-1.59,1.59"/><rect class="cls-3" x="337.81" y="110.96" width="1.5" height="5.39"/><rect class="cls-3" x="345.64" y="110.96" width="1.5" height="5.39"/><rect class="cls-3" x="353.47" y="110.96" width="1.5" height="5.39"/><rect class="cls-3" x="361.3" y="110.96" width="1.5" height="5.39"/><rect class="cls-3" x="369.13" y="110.96" width="1.5" height="5.39"/><rect class="cls-3" x="376.84" y="110.96" width="1.5" height="5.39"/><path class="cls-5" d="M33.54,124.53H1.86a1.11,1.11,0,0,1-1.11-1.11V84.24a1.11,1.11,0,0,1,1.11-1.11H33.54a1.11,1.11,0,0,1,1.11,1.11v39.18a1.11,1.11,0,0,1-1.11,1.11"/><path class="cls-3" d="M1.5,124.53H0V84.31a1.93,1.93,0,0,1,1.92-1.92H33.48a1.93,1.93,0,0,1,1.92,1.92v4.1H33.9v-4.1a.43.43,0,0,0-.42-.42H1.92a.43.43,0,0,0-.42.42Z"/><rect class="cls-6" x="7.17" y="89.58" width="21.06" height="7.12"/><polygon class="cls-7" points="21.34 89.58 11.27 89.58 7.17 93.67 7.17 96.7 14.22 96.7 21.34 89.58"/><polygon class="cls-7" points="16.07 96.7 20.88 96.7 28 89.58 23.19 89.58 16.07 96.7"/><rect class="cls-3" x="7.17" y="103.32" width="3.17" height="1.5"/><rect class="cls-3" x="13.14" y="103.32" width="3.17" height="1.5"/><rect class="cls-3" x="19.1" y="103.32" width="3.17" height="1.5"/><rect class="cls-3" x="25.06" y="103.32" width="3.17" height="1.5"/><rect class="cls-3" x="7.17" y="108.95" width="3.17" height="1.5"/><rect class="cls-3" x="13.14" y="108.95" width="3.17" height="1.5"/><rect class="cls-3" x="19.1" y="108.95" width="3.17" height="1.5"/><rect class="cls-3" x="25.06" y="108.95" width="3.17" height="1.5"/><rect class="cls-3" x="7.17" y="114.58" width="3.17" height="1.5"/><rect class="cls-3" x="13.14" y="114.58" width="3.17" height="1.5"/><rect class="cls-3" x="19.1" y="114.58" width="3.17" height="1.5"/><rect class="cls-3" x="25.06" y="114.58" width="3.17" height="1.5"/><path class="cls-5" d="M307.17,62.53l13,13v45.31a3.71,3.71,0,0,1-3.71,3.71H277.69a3.71,3.71,0,0,1-3.71-3.71V66.25a3.71,3.71,0,0,1,3.71-3.71Z"/><polygon class="cls-6" points="307.17 75.51 307.17 62.53 320.15 75.51 307.17 75.51"/><path class="cls-3" d="M320.15,76.26H308.46a2,2,0,0,1-2-2V62.53h1.5V74.22a.55.55,0,0,0,.55.55h11.68Z"/><path class="cls-3" d="M297.74,86.66H290v-1.5h7.72a2.12,2.12,0,0,0,0-4.24h-3.09a3.62,3.62,0,0,1,0-7.24h7.5v1.5h-7.5a2.12,2.12,0,0,0,0,4.24h3.09a3.62,3.62,0,0,1,0,7.24"/><rect class="cls-3" x="295.34" y="69.69" width="1.5" height="20.96"/><rect class="cls-3" x="279.23" y="93.78" width="34.42" height="1.5"/><rect class="cls-3" x="279.23" y="101.15" width="34.42" height="1.5"/><rect class="cls-3" x="279.23" y="108.51" width="34.42" height="1.5"/><rect class="cls-3" x="279.23" y="115.87" width="34.42" height="1.5"/><path class="cls-3" d="M316.43,125.28H277.69a4.47,4.47,0,0,1-4.46-4.46h1.5a3,3,0,0,0,3,3h38.75a3,3,0,0,0,3-3v-45L306.86,63.28H281.92v-1.5h25.55L320.9,75.2v45.62a4.47,4.47,0,0,1-4.46,4.46"/><path class="cls-5" d="M124.65,124.53H50.36a1.91,1.91,0,0,1-1.91-1.91V70.22a1.91,1.91,0,0,1,1.91-1.91h74.29a1.91,1.91,0,0,1,1.91,1.91v52.39a1.91,1.91,0,0,1-1.91,1.91"/><path class="cls-3" d="M49.2,93.14H47.7V71.94a4.39,4.39,0,0,1,4.38-4.38h6.23v1.5H52.08a2.88,2.88,0,0,0-2.88,2.88Z"/><path class="cls-3" d="M122.93,125.28H52.08a4.39,4.39,0,0,1-4.38-4.38h1.5a2.88,2.88,0,0,0,2.88,2.88h70.85a2.88,2.88,0,0,0,2.88-2.88v-49a2.88,2.88,0,0,0-2.88-2.88H105v-1.5h17.93a4.38,4.38,0,0,1,4.38,4.38v49a4.38,4.38,0,0,1-4.38,4.38"/><rect class="cls-3" x="53.77" y="89.2" width="1.5" height="14.44"/><rect class="cls-4" x="58.56" y="73.12" width="57.13" height="46.6"/><path class="cls-3" d="M119.36,99.2a2.78,2.78,0,1,1,2.78-2.78,2.78,2.78,0,0,1-2.78,2.78m0-4.06a1.28,1.28,0,1,0,1.28,1.28,1.28,1.28,0,0,0-1.28-1.28"/><rect class="cls-6" x="59.96" y="60.63" width="8.96" height="59.09"/><rect class="cls-8" x="59.96" y="60.63" width="4.48" height="59.09"/><polygon class="cls-3" points="69.67 119.72 68.17 119.72 68.17 61.38 60.71 61.38 60.71 119.72 59.21 119.72 59.21 59.88 69.67 59.88 69.67 119.72"/><rect class="cls-4" x="71.6" y="51.67" width="8.96" height="68.05"/><rect class="cls-9" x="71.6" y="51.67" width="4.48" height="68.05"/><polygon class="cls-3" points="81.31 119.72 79.81 119.72 79.81 52.42 72.35 52.42 72.35 119.72 70.85 119.72 70.85 50.92 81.31 50.92 81.31 119.72"/><rect class="cls-10" x="83.71" y="44.59" width="8.96" height="75.13"/><rect class="cls-11" x="83.7" y="44.59" width="4.48" height="75.13"/><polygon class="cls-3" points="93.41 119.72 91.91 119.72 91.91 45.34 84.45 45.34 84.45 119.72 82.95 119.72 82.95 43.84 93.41 43.84 93.41 119.72"/><path class="cls-6" d="M226.27,120.32H122.9a1,1,0,0,1-1-1V45.59a1,1,0,0,1,1-1H226.27a1,1,0,0,1,1,1v73.73a1,1,0,0,1-1,1"/><rect class="cls-3" x="130.69" y="43.84" width="1.98" height="1.5"/><path class="cls-3" d="M122.65,61.59h-1.5V47.21a3.37,3.37,0,0,1,3.37-3.37h5.24v1.5h-5.24a1.87,1.87,0,0,0-1.87,1.87Z"/><rect class="cls-3" x="226.52" y="75.38" width="1.5" height="14.8"/><path class="cls-3" d="M228,66.93h-1.5V47.21a1.87,1.87,0,0,0-1.87-1.87H133.57v-1.5h91.08A3.37,3.37,0,0,1,228,47.21Z"/><rect class="cls-5" x="127.02" y="50.55" width="94.56" height="61.46"/><path class="cls-5" d="M225.42,124.53H122.58a5,5,0,0,1-5-4.22l-.73-4.47h47.67l1.82,2.62h13.17l2-2.62h50.21l-.64,3.89a5.74,5.74,0,0,1-5.66,4.81"/><rect class="cls-3" x="122.58" y="123.78" width="102.84" height="1.5"/><polygon class="cls-3" points="179.91 119.2 165.97 119.2 164.15 116.59 129.58 116.59 129.58 115.09 164.93 115.09 166.76 117.7 179.16 117.7 181.13 115.09 194.66 115.09 194.66 116.59 181.88 116.59 179.91 119.2"/><g class="cls-12"><g class="cls-13"><polygon class="cls-14" points="227.27 75.38 227.27 72.52 216.33 85.22 193.08 57.67 165.18 98.95 151.13 84.39 137.34 98.8 126.56 98.4 126.56 101.4 138.65 101.84 151.21 88.72 165.66 103.69 193.41 62.63 216.37 89.85 228.02 76.33 228.02 75.38 227.27 75.38"/></g></g><polygon class="cls-3" points="165.66 102.27 151.21 87.82 138.65 101.4 126.56 101.4 126.56 98.4 137.34 98.4 151.13 83.49 165.18 97.54 193.08 55.25 216.33 81.95 253.56 37.37 255.86 39.3 216.37 86.57 193.41 60.2 165.66 102.27"/><g class="cls-12"><g class="cls-15"><path class="cls-14" d="M283.64,124.53V73.95H280l-.1-3.93,1.55-7.48h-3.74A3.71,3.71,0,0,0,274,66.25v54.57h-.75a4.46,4.46,0,0,0,2,3.71h8.42Z"/></g></g><path class="cls-5" d="M267,53.52a2.53,2.53,0,0,0-1.4-4.86l-8.81,2.54a2.53,2.53,0,1,0,1.4,4.86Z"/><path class="cls-5" d="M269.69,59a2.53,2.53,0,0,0-1.4-4.87l-8.81,2.54a2.53,2.53,0,1,0,1.4,4.86Z"/><path class="cls-5" d="M271.1,64.29a2.53,2.53,0,0,0-1.4-4.87L260.89,62a2.53,2.53,0,1,0,1.4,4.86Z"/><path class="cls-3" d="M257.53,56.9a3.3,3.3,0,0,1-3.16-2.37,3.28,3.28,0,0,1,2.25-4.06l1.47-.42.42,1.44-1.47.42a1.78,1.78,0,0,0-1.22,2.2A1.79,1.79,0,0,0,258,55.33l1.67-.48.41,1.44-1.67.48a3.26,3.26,0,0,1-.9.13"/><path class="cls-3" d="M260.18,62.34a3.28,3.28,0,0,1-.91-6.43l.42,1.44a1.78,1.78,0,1,0,1,3.42l.42,1.44a3.27,3.27,0,0,1-.91.13"/><path class="cls-3" d="M261.59,67.68a3.28,3.28,0,0,1-.91-6.43l.41,1.44a1.78,1.78,0,0,0-1.22,2.2,1.79,1.79,0,0,0,2.21,1.22l.41,1.44a3.25,3.25,0,0,1-.9.13"/><rect class="cls-3" x="264.76" y="38.4" width="1.5" height="7.62"/><path class="cls-6" d="M265.51,2.57A18.39,18.39,0,1,0,283.9,21,18.39,18.39,0,0,0,265.51,2.57m0,32.36a14,14,0,1,1,14-14,14,14,0,0,1-14,14"/><path class="cls-3" d="M265.51,40.1A19.14,19.14,0,1,1,277.68,6.19l-1,1.16a17.62,17.62,0,1,0,4,4.67l1.29-.76a19.15,19.15,0,0,1-16.5,28.84"/><path class="cls-6" d="M261.87,43.78V66A2.12,2.12,0,0,0,264,68.13h3A2.13,2.13,0,0,0,269.14,66V43.78Z"/><path class="cls-3" d="M264,68.88A2.88,2.88,0,0,1,261.12,66V43h8.76V66A2.88,2.88,0,0,1,267,68.88Zm-1.37-24.35V66A1.38,1.38,0,0,0,264,67.38h3A1.38,1.38,0,0,0,268.39,66V44.53Z"/><rect class="cls-3" x="261.7" y="48.26" width="7.62" height="1.5"/><rect class="cls-3" x="261.7" y="52.07" width="7.62" height="1.5"/><polygon class="cls-5" points="277.29 75.97 277.13 69.95 279.92 56.48 272.99 47.16 267.26 48.55 263.81 68.11 264.27 76.04 277.29 75.97"/><path class="cls-3" d="M263.54,76.79l-.48-14.66,1.5,0,.43,13.2,11.53-.06-.14-5.34L279,57.14a1.08,1.08,0,0,0-.19-.87L272.69,48l-4.9,1.18-.35-1.46,5.86-1.42L280,55.38a2.58,2.58,0,0,1,.46,2.07L277.88,70l.18,6.7Z"/><path class="cls-5" d="M271.93,65.22a3.72,3.72,0,0,1-1.88,4.59,3.07,3.07,0,0,1-4.15-1.95l-5.8-16.7A3.71,3.71,0,0,1,262,46.57a3.07,3.07,0,0,1,4.15,2Z"/><path class="cls-5" d="M274.25,69.14c0,3.57-.67,6.45-3.7,6.43H267c-3,0-3.74-2.91-3.73-6.48V66.16c0-3.57,2.48-6.44,5.51-6.43s5.47,2.91,5.45,6.47Z"/><path class="cls-3" d="M265.2,68.11l-5.8-16.7a4.48,4.48,0,0,1,2.28-5.53,3.68,3.68,0,0,1,3,0,4.07,4.07,0,0,1,2.18,2.4l4,11.39-1.42.49-4-11.39a2.53,2.53,0,0,0-1.36-1.52,2.2,2.2,0,0,0-1.78,0,3,3,0,0,0-1.47,3.66l5.8,16.7Z"/><polygon class="cls-3" points="263.54 76.8 263.06 62.13 264.56 62.09 264.99 75.29 277.29 75.22 277.29 76.72 263.54 76.8"/><rect class="cls-10" x="261.81" y="74.7" width="19.08" height="49.83"/><polygon class="cls-3" points="281.64 124.53 280.14 124.53 280.14 75.45 262.56 75.45 262.56 92.77 261.06 92.77 261.06 73.95 281.64 73.95 281.64 124.53"/><rect class="cls-3" x="252.95" y="15.96" width="39.18" height="3" transform="translate(83.24 214.31) rotate(-49.79)"/><g class="cls-12"><g class="cls-16"><path class="cls-14" d="M262.58,100.88a1.55,1.55,0,0,0,2.12-.57L266,98a1.55,1.55,0,0,0-.57-2.12l-3.65-2.11v6.65l.77.45Z"/><path class="cls-14" d="M272.36,124.53a28.42,28.42,0,0,0-10.56-22.1v22.1h10.56Z"/></g></g><path class="cls-6" d="M269.61,124.53a27.73,27.73,0,0,0-55.47,0Z"/><path class="cls-3" d="M270.36,124.53h-1.5A27,27,0,0,0,220,108.79l-1.22-.87a28.48,28.48,0,0,1,51.62,16.61"/><path class="cls-4" d="M265.36,124.53a23.48,23.48,0,0,0-47,0Z"/><path class="cls-5" d="M254.66,124.53a12.78,12.78,0,0,0-25.56,0Z"/><path class="cls-6" d="M244.79,124.53a2.91,2.91,0,0,0-5.83,0Z"/><path class="cls-3" d="M266.11,124.53h-1.5a22.73,22.73,0,0,0-45.46,0h-1.5a24.23,24.23,0,0,1,48.46,0"/><rect class="cls-3" x="239.61" y="102.18" width="4.49" height="1.5" transform="translate(135.71 343.39) rotate(-89.24)"/><rect class="cls-3" x="249.4" y="105.05" width="4.33" height="1.5" transform="translate(32.09 268.01) rotate(-59.28)"/><rect class="cls-3" x="257.81" y="113.2" width="4.71" height="1.5" transform="translate(-22.49 141.8) rotate(-29.28)"/><rect class="cls-3" x="222.84" y="111.61" width="1.5" height="4.71" transform="matrix(0.51, -0.86, 0.86, 0.51, 11.21, 247.67)"/><rect class="cls-3" x="231.43" y="103.65" width="1.5" height="4.33" transform="translate(-22.12 126.72) rotate(-29.2)"/><polygon class="cls-6" points="242.13 122.55 252.63 112.59 253.05 113 243.2 123.6 242.13 122.55"/><rect class="cls-3" x="241.13" y="91.65" width="1.5" height="5.15"/><path class="cls-6" d="M246.63,93.83H237a.8.8,0,0,1-.8-.8V89.08a.8.8,0,0,1,.8-.8h9.63a.8.8,0,0,1,.8.8V93a.8.8,0,0,1-.8.8"/><path class="cls-3" d="M246.63,94.58H237A1.55,1.55,0,0,1,235.45,93V89.08A1.56,1.56,0,0,1,237,87.53h9.63a1.56,1.56,0,0,1,1.55,1.55V93a1.56,1.56,0,0,1-1.55,1.55M237,89,237,93l9.68.05a.05.05,0,0,0,.05-.05V89.08Z"/><rect class="cls-3" x="255.82" y="98.02" width="3.95" height="1.5" transform="translate(43.36 272.64) rotate(-60)"/><path class="cls-6" d="M261,100.23l-6.08-3.51a.8.8,0,0,1-.29-1.1l1.33-2.3A.8.8,0,0,1,257,93l6.08,3.51a.8.8,0,0,1,.29,1.1l-1.33,2.3a.8.8,0,0,1-1.1.29"/><path class="cls-3" d="M261.35,101.09a1.55,1.55,0,0,1-.77-.21h0l-6.08-3.51a1.55,1.55,0,0,1-.57-2.12l1.33-2.3a1.55,1.55,0,0,1,2.12-.57l6.08,3.51A1.55,1.55,0,0,1,264,98l-1.33,2.3a1.55,1.55,0,0,1-1.35.78m0-1.51a.05.05,0,0,0,.07,0l1.33-2.3-6.1-3.58L255.23,96Z"/><rect class="cls-3" x="224.79" y="96.79" width="1.5" height="3.95" transform="translate(-19.16 126.04) rotate(-30.01)"/><path class="cls-6" d="M222.39,100.23l6.08-3.51a.8.8,0,0,0,.29-1.1l-1.33-2.3a.8.8,0,0,0-1.1-.29l-6.08,3.51a.8.8,0,0,0-.29,1.1l1.33,2.3a.8.8,0,0,0,1.1.29"/><path class="cls-3" d="M222,101.09a1.55,1.55,0,0,1-1.35-.78L219.31,98a1.55,1.55,0,0,1,.57-2.12L226,92.38a1.55,1.55,0,0,1,2.12.57l1.33,2.3a1.55,1.55,0,0,1-.57,2.12l-6.08,3.51a1.55,1.55,0,0,1-.77.21m4.8-7.39-6.15,3.49,1.31,2.37.45.67-.37-.65,6.08-3.51Z"/><g class="cls-12"><g class="cls-17"><path class="cls-14" d="M115.8,123.53v-2H119l3.13-5h2.38v-1.5h-2v-2.72h2v-1.5h-2v-2.72h2v-1.5h-2v-2.72h2v-1.5h-2V97.89a19.42,19.42,0,0,0,4.88-4.24V71.94a4.39,4.39,0,0,0-4.38-4.38H105v.75H99.13c-.33.34-.66.68-1,1l-.58-.49a19.35,19.35,0,0,0,4.79,29v4.51h-2v1.5h2v2.72h-2v1.5h2v2.72h-2v1.5h2v2.72h-2v1.5h2.35l2.64,5h3.42v2a1.75,1.75,0,0,0,1.75,1.75h3.57a1.75,1.75,0,0,0,1.75-1.75"/></g></g><path class="cls-6" d="M116.05,124.53h-3.57a1,1,0,0,1-1-1V117a1,1,0,0,1,1-1h3.57a1,1,0,0,1,1,1v6.53a1,1,0,0,1-1,1"/><path class="cls-3" d="M116.05,125.28h-3.57a1.75,1.75,0,0,1-1.75-1.75V117a1.75,1.75,0,0,1,1.75-1.75h3.57A1.75,1.75,0,0,1,117.8,117v6.53a1.75,1.75,0,0,1-1.75,1.75m-3.57-8.53a.25.25,0,0,0-.25.25v6.53a.25.25,0,0,0,.25.25h3.57a.25.25,0,0,0,.25-.25V117a.25.25,0,0,0-.25-.25Z"/><path class="cls-5" d="M133,81.34a18.62,18.62,0,1,0-27.89,16.12v18.36l2.64,5h12.79l3.13-5V97.46A18.59,18.59,0,0,0,133,81.34"/><polygon class="cls-4" points="105.12 103.91 105.12 117.2 107.76 120.82 120.55 120.82 123.68 117.2 123.68 103.91 105.12 103.91"/><polygon class="cls-6" points="123.68 115.82 120.55 120.82 107.76 120.82 105.12 115.82 123.68 115.82"/><path class="cls-3" d="M121,121.57H107.31L104.37,116V97.89a19.35,19.35,0,0,1-4.78-29l1.15,1a17.85,17.85,0,0,0,4.76,27l.38.22v18.6l2.34,4.44h11.92l2.8-4.47V97l.38-.22a17.86,17.86,0,0,0-15.61-32l-.56-1.39a19.36,19.36,0,0,1,17.3,34.5V116Z"/><path class="cls-3" d="M102.54,68l-1.07-1.05a10.77,10.77,0,0,1,2.92-2.17l.35-.2.75,1.3-.36.2A9.38,9.38,0,0,0,102.54,68"/><rect class="cls-3" x="102.32" y="102.41" width="24.16" height="1.5"/><rect class="cls-3" x="102.32" y="106.63" width="24.16" height="1.5"/><rect class="cls-3" x="102.32" y="110.85" width="24.16" height="1.5"/><rect class="cls-3" x="102.32" y="115.07" width="24.16" height="1.5"/><path class="cls-6" d="M115.31,69.33v12.1h0L123.85,90a12.06,12.06,0,0,0,3.55-8.53s0,0,0,0a12.1,12.1,0,0,0-12.1-12.1"/><path class="cls-10" d="M106.18,72.86a12.06,12.06,0,0,0-3.56,8.54l12.1,0h0V69.33a12.06,12.06,0,0,0-8.54,3.53"/><path class="cls-4" d="M114.73,82h0l-12.1,0v0a12.1,12.1,0,0,0,20.64,8.57Z"/><path class="cls-3" d="M114.81,94.86a13.64,13.64,0,1,1,13.64-13.64,13.65,13.65,0,0,1-13.64,13.64m0-25.77a12.14,12.14,0,1,0,12.14,12.14,12.15,12.15,0,0,0-12.14-12.14"/><polygon class="cls-3" points="122.74 90.53 114.5 82.43 101.93 82.43 101.93 80.93 115.12 80.93 123.79 89.46 122.74 90.53"/><rect class="cls-3" x="113.55" y="68.1" width="1.5" height="13.34"/><g class="cls-12"><g class="cls-18"><path class="cls-14" d="M55,107.83a17.41,17.41,0,0,0-6.58-13.63V120.9H47.7a4.38,4.38,0,0,0,.13,1A17.41,17.41,0,0,0,55,107.83"/></g></g><path class="cls-4" d="M52.28,107.83A16.7,16.7,0,1,1,35.59,91.14a16.7,16.7,0,0,1,16.69,16.69"/><path class="cls-5" d="M47.73,107.83A12.15,12.15,0,1,1,35.59,95.69a12.15,12.15,0,0,1,12.15,12.15"/><path class="cls-3" d="M35.59,125.28A17.45,17.45,0,1,1,53,107.83a17.47,17.47,0,0,1-17.45,17.45m0-33.39a15.95,15.95,0,1,0,15.95,15.94A16,16,0,0,0,35.59,91.89"/><rect class="cls-3" x="27.48" y="107.08" width="16.22" height="1.5" transform="translate(-65.83 56.75) rotate(-45)"/><path class="cls-3" d="M32.3,107.38a2.83,2.83,0,0,1-2-4.83,2.9,2.9,0,0,1,4,0,2.83,2.83,0,0,1-2,4.83m0-4.16a1.33,1.33,0,0,0-.94,2.27,1.36,1.36,0,0,0,1.88,0,1.33,1.33,0,0,0-.94-2.27"/><path class="cls-3" d="M39.13,114.21a2.83,2.83,0,1,1,2-.83,2.82,2.82,0,0,1-2,.83m0-4.16a1.33,1.33,0,1,0,.94.39,1.33,1.33,0,0,0-.94-.39"/><path class="cls-5" d="M328.67,124.53h-3.75a.51.51,0,0,1-.51-.51V70a.51.51,0,0,1,0-.22l1.87-4.06a.51.51,0,0,1,.93,0l1.87,4.06a.51.51,0,0,1,0,.22v54a.51.51,0,0,1-.51.51"/><rect class="cls-6" x="324.41" y="71.76" width="4.77" height="47.6"/><path class="cls-3" d="M329.93,125.28h-6.27V69.76L325.84,65a1,1,0,0,1,1-.61h0a1,1,0,0,1,1,.61l2.18,4.72Zm-4.77-1.5h3.27V70.09l-1.64-3.54-1.63,3.54Z"/><rect class="cls-3" x="324.25" y="71.01" width="4.93" height="1.5"/><path class="cls-5" d="M202.06,105.52a10.4,10.4,0,1,0,14.45,2.76,10.4,10.4,0,0,0-14.45-2.76"/><path class="cls-3" d="M207.92,125.28a11.14,11.14,0,1,1,6.25-1.92,11.15,11.15,0,0,1-6.25,1.92m0-20.8a9.68,9.68,0,1,0,1.83.17,9.8,9.8,0,0,0-1.83-.17"/><path class="cls-3" d="M207,120.33l-.82-1.26,4.44-2.89a1.22,1.22,0,0,0-1.33-2l-1.78,1.16a2.72,2.72,0,1,1-3-4.56l4.32-2.81.82,1.26L205.34,112a1.22,1.22,0,1,0,1.33,2l1.78-1.16a2.72,2.72,0,1,1,3,4.56Z"/><rect class="cls-3" x="207.15" y="106.93" width="1.5" height="14.39" transform="translate(-28.6 131.84) rotate(-33.05)"/></g></g></svg>