<svg id="Layer_1" data-name="Layer 1" xmlns="http://www.w3.org/2000/svg" viewBox="0 0 75.95 90.98"><defs><style>.cls-1{fill:none;stroke:#5873b8;stroke-miterlimit:10;stroke-width:2px;}.cls-2{fill:#5873b8;}.cls-3{fill:#46ec9c;}</style></defs><title>jurist</title><path class="cls-1" d="M413.8,313.41c-.91-6-1.67-8.25-10-9.21-3.14-.36-11.7-1.24-14.88-3.06s-4.74-5.89-4.74-5.89l-6.62.25-5.93-.25s-2.25,4.07-5.43,5.89-11.74,2.7-14.88,3.06c-8.3,1-9.06,3.23-10,9.21a93.21,93.21,0,0,0-.76,11.21h73.94A93.34,93.34,0,0,0,413.8,313.41Z" transform="translate(-339.61 -234.64)"/><path class="cls-1" d="M397.15,267.53h-.39c.16-1.33.33-2.64.49-3.87.84-6.42,2.72-25.17-19.67-25.17s-20.51,18.75-19.67,25.17c.16,1.24.33,2.55.49,3.88H358c-3.41-2.52-3.69,4.06-2.27,6.31a13.73,13.73,0,0,1,1.91,4.12c.52,1.51,1.4,1.71,2.12,1.55.09.89.17,1.68.23,2.3.31,3.46,8.63,10.39,10.51,12.56s4.71,1.24,5.65,1.2l1.41-.07,1.41.07c.94,0,3.89.84,5.66-1.2s10.2-9.1,10.51-12.56c.06-.62.13-1.4.23-2.3.73.16,1.6,0,2.12-1.55a13.73,13.73,0,0,1,1.91-4.12C400.84,271.59,400.56,265,397.15,267.53Z" transform="translate(-339.61 -234.64)"/><path class="cls-2" d="M377.59,253.57s-3.78.25-6-1.87-8.82-1.07-10.71,3.79-.94,17.12-.94,17.12-7-19.21,0-25.59,17.64-3.75,17.64-3.75Z" transform="translate(-339.61 -234.64)"/><path class="cls-2" d="M377.59,253.57s3.78.25,6-1.87,8.82-1.07,10.71,3.79.95,17.12.95,17.12,7-19.21,0-25.59-17.64-3.75-17.64-3.75Z" transform="translate(-339.61 -234.64)"/><path class="cls-2" d="M386.36,238.48s-2.45-5-12.45-3.6-11,3.6-14.7,2.73a24.6,24.6,0,0,0-2.39,6.48,41.61,41.61,0,0,0,1.52,23l1.59-20.1,11.46.44L385,247.3Z" transform="translate(-339.61 -234.64)"/><path class="cls-2" d="M385.67,237.55s2.29-1.16,7,.93c4.31,1.9,8,6.83,5.35,22.3L388,246l-6.17-.91Z" transform="translate(-339.61 -234.64)"/><path class="cls-3" d="M413.8,313.41c-.91-6-1.67-8.25-10-9.21-1.22-.14-3.26-.36-5.49-.68,0,0-1.54,8.4-18,8.29l-2.73,10.26-2.73-10.26c-16.48.11-18-8.29-18-8.29-2.22.32-4.27.54-5.49.68-8.3,1-9.06,3.23-10,9.21a93.21,93.21,0,0,0-.76,11.21h73.94A93.34,93.34,0,0,0,413.8,313.41Z" transform="translate(-339.61 -234.64)"/></svg>