<svg id="Layer_1" data-name="Layer 1" xmlns="http://www.w3.org/2000/svg" viewBox="0 0 73.94 80.41"><defs><style>.cls-1{fill:none;stroke:#5873b8;stroke-miterlimit:10;stroke-width:2px;}.cls-2,.cls-4{fill:#5873b8;}.cls-3{fill:#46ec9c;}.cls-4{font-size:40.96px;font-family:Comfortaa-Bold, Comfortaa;font-weight:700;}</style></defs><title>kto_vi</title><path class="cls-1" d="M92,371.25h-.39c.16-1.33.33-2.64.49-3.87.84-6.42,2.72-25.17-19.67-25.17S51.91,361,52.75,367.37c.16,1.24.33,2.55.49,3.88h-.39c-3.41-2.52-3.69,4.06-2.27,6.31a13.8,13.8,0,0,1,1.91,4.11c.52,1.51,1.39,1.71,2.12,1.55.09.89.17,1.68.23,2.3.31,3.46,8.63,10.39,10.51,12.56s4.71,1.24,5.65,1.2l1.41-.07,1.41.07c.94,0,3.89.83,5.66-1.2S89.68,389,90,385.52c.06-.62.13-1.41.23-2.3.72.16,1.6,0,2.12-1.55a13.67,13.67,0,0,1,1.91-4.11C95.67,375.31,95.38,368.73,92,371.25Z" transform="translate(-35.45 -340.93)"/><path class="cls-2" d="M55,379.24s-.3-9.7.61-11.21,8.79-7.42,9.55-10.76c.48-2.12-3.33-13.12-3.33-13.12s-10.42,0-10.4,16.56c0,3,1.83,10.54,1.83,10.54A74.65,74.65,0,0,1,55,379.24Z" transform="translate(-35.45 -340.93)"/><path class="cls-2" d="M89.84,379.24s.3-9.7-.61-11.21S65.9,360.6,65.14,357.27c-.48-2.12-3.33-13.12-3.33-13.12s1.73-2.32,6.66-2.94c10.76-1.36,24.2,1.77,24.95,19.5.12,3-1.83,10.54-1.83,10.54A75.19,75.19,0,0,0,89.84,379.24Z" transform="translate(-35.45 -340.93)"/><path class="cls-3" d="M46.17,400.92c-8.3,1-9.06,3.23-10,9.21a93.32,93.32,0,0,0-.76,11.21h37v-17.2c-7.54,0-15.61-4.84-15.61-4.84A102.14,102.14,0,0,1,46.17,400.92Z" transform="translate(-35.45 -340.93)"/><path class="cls-3" d="M108.63,410.13c-.91-6-1.67-8.25-10-9.21A102.16,102.16,0,0,1,88,399.3s-8.08,4.81-15.61,4.84v17.2h37A93.41,93.41,0,0,0,108.63,410.13Z" transform="translate(-35.45 -340.93)"/><text class="cls-4" transform="translate(25.77 55.74)">?</text></svg>