<svg id="Layer_1" data-name="Layer 1" xmlns="http://www.w3.org/2000/svg" viewBox="0 0 409.6 409.6"><defs><style>.cls-1{fill:#5973b8;}.cls-2{fill:#73c48f;}.cls-3{fill:#5178bc;}</style></defs><title>nabor</title><path class="cls-1" d="M277.29,209H256.81V-70.87A34.17,34.17,0,0,0,222.68-105H-64a6.83,6.83,0,0,0-6.83,6.83v41H-84.52A20.51,20.51,0,0,0-105-36.73,20.5,20.5,0,0,0-84.52-16.25h13.65V11.06H-84.52A20.5,20.5,0,0,0-105,31.54,20.5,20.5,0,0,0-84.52,52h13.65V79.32H-84.52A20.5,20.5,0,0,0-105,99.8a20.51,20.51,0,0,0,20.48,20.48h13.65v27.3H-84.52A20.5,20.5,0,0,0-105,168.07a20.5,20.5,0,0,0,20.48,20.48h13.65v27.31H-84.52A20.51,20.51,0,0,0-105,236.33a20.5,20.5,0,0,0,20.48,20.48h13.65v41A6.83,6.83,0,0,0-64,304.6H222.68a34.17,34.17,0,0,0,34.13-34.14v-6.82h20.48a27.31,27.31,0,1,0,0-54.61ZM-84.52-29.91a6.84,6.84,0,0,1-6.83-6.83,6.84,6.84,0,0,1,6.83-6.83h40.23A7.9,7.9,0,0,1-38-40.45a6.48,6.48,0,0,1,.4.59,5.3,5.3,0,0,1,.45,1.15,6.17,6.17,0,0,1,.27,1.35,7.3,7.3,0,0,1-.07,1.61,6.84,6.84,0,0,1-.24,1.19A6.76,6.76,0,0,1-38-33a5.78,5.78,0,0,1-.6.89A6.81,6.81,0,0,1-40.1-31a6.12,6.12,0,0,1-.71.48,6.69,6.69,0,0,1-2.75.61Zm0,68.27a6.84,6.84,0,0,1-6.83-6.82,6.84,6.84,0,0,1,6.83-6.83h40.23A7.9,7.9,0,0,1-38,27.82c.14.2.29.38.4.59a5.29,5.29,0,0,1,.45,1.15,6.23,6.23,0,0,1,.27,1.35,7.34,7.34,0,0,1-.07,1.61,6.92,6.92,0,0,1-.24,1.2,6.74,6.74,0,0,1-.8,1.5,5.82,5.82,0,0,1-.6.89,6.71,6.71,0,0,1-1.52,1.16,6.62,6.62,0,0,1-.71.48,6.69,6.69,0,0,1-2.75.61Zm0,68.27a6.84,6.84,0,0,1-6.83-6.82A6.84,6.84,0,0,1-84.52,93h40.23A7.9,7.9,0,0,1-38,96.09c.14.2.29.38.4.59a5.35,5.35,0,0,1,.45,1.15,6.22,6.22,0,0,1,.27,1.36,7.31,7.31,0,0,1-.07,1.61,6.84,6.84,0,0,1-.24,1.19,6.72,6.72,0,0,1-.8,1.5,5.78,5.78,0,0,1-.6.89,6.71,6.71,0,0,1-1.52,1.16,6.49,6.49,0,0,1-.71.48,6.64,6.64,0,0,1-2.75.61Zm0,68.27a6.84,6.84,0,0,1-6.83-6.83,6.84,6.84,0,0,1,6.83-6.83h40.23a7.9,7.9,0,0,1,6.3,3.11c.14.2.29.38.4.59a5.33,5.33,0,0,1,.45,1.16,6.16,6.16,0,0,1,.27,1.35,7.3,7.3,0,0,1-.07,1.61,6.83,6.83,0,0,1-.24,1.2,6.85,6.85,0,0,1-.8,1.5,6.13,6.13,0,0,1-.6.89,6.78,6.78,0,0,1-1.52,1.15,5.62,5.62,0,0,1-.71.48,6.63,6.63,0,0,1-2.75.62Zm0,68.27a6.84,6.84,0,0,1-6.83-6.83,6.84,6.84,0,0,1,6.83-6.82h40.23a7.9,7.9,0,0,1,6.3,3.11,6.37,6.37,0,0,1,.4.59,5.29,5.29,0,0,1,.45,1.15,6.18,6.18,0,0,1,.27,1.35,7.29,7.29,0,0,1-.07,1.61,6.84,6.84,0,0,1-.24,1.2A6.72,6.72,0,0,1-38,240a5.78,5.78,0,0,1-.6.89,6.78,6.78,0,0,1-1.52,1.15,6,6,0,0,1-.71.48,6.69,6.69,0,0,1-2.75.61ZM243.16,250H229.51V222.68h13.65Zm0-41h-198a6.79,6.79,0,0,0-2.69.55L-5.29,230.06a6.82,6.82,0,0,0-4.14,6.27,6.82,6.82,0,0,0,4.14,6.27L42.5,263.09a6.73,6.73,0,0,0,2.69.55h198v6.82a20.5,20.5,0,0,1-20.48,20.48H-57.22V256.81h13.66a20.32,20.32,0,0,0,4.28-.46c.43-.09.84-.27,1.26-.39a21,21,0,0,0,2.73-.92c.51-.23,1-.53,1.48-.81A19.68,19.68,0,0,0-31.69,253c.49-.35.94-.76,1.41-1.16a22.35,22.35,0,0,0,1.74-1.65c.19-.2.41-.35.59-.55s.38-.59.59-.87a21.28,21.28,0,0,0,1.36-2c.31-.51.59-1,.85-1.56a20.58,20.58,0,0,0,.93-2.34c.18-.53.37-1.06.5-1.61a20.47,20.47,0,0,0,.42-2.55c.07-.57.16-1.13.17-1.71,0-.21.06-.4.06-.62a18.87,18.87,0,0,0-.21-2c0-.46,0-.93-.07-1.4,0-.14-.08-.27-.11-.4-.1-.5-.25-1-.38-1.45a19.74,19.74,0,0,0-.67-2.16,20.35,20.35,0,0,0-1-2c-.18-.34-.35-.7-.55-1a20.44,20.44,0,0,0-17.52-10H-57.22V188.55h13.66a20.59,20.59,0,0,0,4.28-.46c.43-.09.84-.27,1.26-.39a20.83,20.83,0,0,0,2.73-.92c.51-.23,1-.54,1.48-.81a19,19,0,0,0,2.12-1.27c.49-.35.94-.76,1.41-1.16a20.92,20.92,0,0,0,1.74-1.64c.19-.2.41-.35.59-.55s.38-.59.59-.87a22,22,0,0,0,1.36-2c.31-.51.59-1,.85-1.56a20.66,20.66,0,0,0,.93-2.34c.18-.53.37-1.06.5-1.61a20.57,20.57,0,0,0,.42-2.55c.07-.57.16-1.13.17-1.71,0-.21.06-.4.06-.61a18.79,18.79,0,0,0-.21-2c0-.46,0-.93-.07-1.4,0-.14-.08-.27-.11-.4-.1-.5-.25-1-.38-1.45a19.81,19.81,0,0,0-.67-2.16,21,21,0,0,0-1-2c-.18-.34-.35-.7-.55-1a20.44,20.44,0,0,0-17.52-10H-57.22v-27.3h13.66a20.59,20.59,0,0,0,4.28-.46c.43-.1.84-.27,1.26-.39a20.42,20.42,0,0,0,2.73-.92c.51-.22,1-.53,1.48-.81a19.06,19.06,0,0,0,2.12-1.28c.49-.36.94-.76,1.41-1.16a21.79,21.79,0,0,0,1.74-1.65c.19-.2.41-.35.59-.55s.38-.59.59-.87a21.11,21.11,0,0,0,1.36-2c.31-.51.59-1,.85-1.57a20.82,20.82,0,0,0,.93-2.33c.18-.53.37-1.06.5-1.61a20.41,20.41,0,0,0,.42-2.55c.07-.57.16-1.13.17-1.72,0-.21.06-.4.06-.61a19,19,0,0,0-.21-2c0-.46,0-.93-.07-1.4,0-.14-.08-.26-.11-.4-.1-.5-.25-1-.38-1.45a20.17,20.17,0,0,0-.67-2.16,20.88,20.88,0,0,0-1-2c-.18-.34-.35-.7-.55-1a20.44,20.44,0,0,0-17.52-10H-57.22V52h13.66a20.59,20.59,0,0,0,4.28-.46c.43-.1.84-.27,1.26-.39a20.28,20.28,0,0,0,2.73-.92c.51-.23,1-.53,1.48-.8a19.7,19.7,0,0,0,2.12-1.28c.49-.35.94-.76,1.41-1.16a22.54,22.54,0,0,0,1.74-1.64c.19-.2.41-.35.59-.55s.38-.59.59-.87a20.91,20.91,0,0,0,1.36-2c.31-.51.59-1,.85-1.56A20.82,20.82,0,0,0-24.23,38c.18-.54.37-1.06.5-1.61a20.44,20.44,0,0,0,.42-2.55c.07-.57.16-1.13.17-1.71,0-.21.06-.4.06-.61a18.87,18.87,0,0,0-.21-2c0-.46,0-.93-.07-1.4,0-.14-.08-.27-.11-.4-.1-.5-.25-1-.38-1.45a19.81,19.81,0,0,0-.67-2.16,20.46,20.46,0,0,0-1-2c-.18-.34-.35-.69-.55-1a20.43,20.43,0,0,0-17.52-10H-57.22V-16.25h13.66a20.59,20.59,0,0,0,4.28-.47c.43-.09.84-.27,1.26-.39A21.16,21.16,0,0,0-35.29-18c.51-.23,1-.54,1.48-.8a19.69,19.69,0,0,0,2.12-1.28c.49-.36.94-.76,1.41-1.16a21.64,21.64,0,0,0,1.74-1.65c.19-.19.41-.35.59-.55s.38-.59.59-.87a21.29,21.29,0,0,0,1.36-2c.31-.51.59-1,.85-1.56a20.58,20.58,0,0,0,.93-2.34c.18-.53.37-1.06.5-1.61a20.45,20.45,0,0,0,.42-2.55c.07-.57.16-1.13.17-1.71,0-.21.06-.41.06-.62a18.89,18.89,0,0,0-.21-2c0-.46,0-.93-.07-1.4,0-.14-.08-.27-.11-.4-.1-.5-.25-1-.38-1.45a19.81,19.81,0,0,0-.67-2.16,20.44,20.44,0,0,0-1-2c-.18-.34-.35-.7-.55-1a20.44,20.44,0,0,0-17.52-10H-57.22V-91.35h279.9a20.51,20.51,0,0,1,20.48,20.48Zm-27.31,13.65V250H52V222.68ZM38.36,226.2v20.26L14.73,236.33ZM277.29,250H256.81V222.68h20.48a13.65,13.65,0,0,1,0,27.31Zm0,0" transform="translate(105 105)"/><path class="cls-2" d="M58.84,120.28H4.23a6.83,6.83,0,0,0-6.83,6.82v54.61a6.83,6.83,0,0,0,6.83,6.83H58.84a6.83,6.83,0,0,0,6.83-6.83V127.11a6.83,6.83,0,0,0-6.83-6.82ZM52,174.9h-41v-41H52Zm0,0" transform="translate(105 105)"/><rect class="cls-3" x="184.32" y="225.28" width="136.53" height="13.65"/><rect class="cls-3" x="184.32" y="252.59" width="136.53" height="13.65"/><rect class="cls-3" x="184.32" y="279.9" width="136.53" height="13.65"/><path class="cls-2" d="M58.84,31.54H4.23A6.83,6.83,0,0,0-2.6,38.36V93A6.83,6.83,0,0,0,4.23,99.8H58.84A6.83,6.83,0,0,0,65.67,93V38.36a6.83,6.83,0,0,0-6.83-6.82ZM52,86.15h-41v-41H52Zm0,0" transform="translate(105 105)"/><rect class="cls-3" x="184.32" y="136.54" width="136.53" height="13.65"/><rect class="cls-3" x="184.32" y="163.84" width="136.53" height="13.65"/><rect class="cls-3" x="184.32" y="191.15" width="136.53" height="13.65"/><path class="cls-2" d="M58.84-57.21H4.23A6.83,6.83,0,0,0-2.6-50.39V4.23a6.83,6.83,0,0,0,6.83,6.83H58.84a6.83,6.83,0,0,0,6.83-6.83V-50.39a6.83,6.83,0,0,0-6.83-6.83ZM52-2.6h-41v-41H52Zm0,0" transform="translate(105 105)"/><rect class="cls-3" x="184.32" y="47.79" width="136.53" height="13.66"/><rect class="cls-3" x="184.32" y="75.09" width="136.53" height="13.65"/><rect class="cls-3" x="184.32" y="102.4" width="136.53" height="13.66"/></svg>