<svg id="Layer_1" data-name="Layer 1" xmlns="http://www.w3.org/2000/svg" xmlns:xlink="http://www.w3.org/1999/xlink" viewBox="0 0 393.47 409.6"><defs><style>.cls-1{fill:none;}.cls-2{fill:#5973b8;}.cls-3{fill:#74c590;}.cls-4{fill:#5178bc;}.cls-5{clip-path:url(#clip-path);}</style><clipPath id="clip-path" transform="translate(97 104.68)"><rect class="cls-1" x="-97" y="-105" width="393.84" height="410.88"/></clipPath></defs><title>o_companii</title><path class="cls-2" d="M261.4,247.32a44.8,44.8,0,1,1-89.6,0,6.39,6.39,0,0,0-6.4-6.4H-45.8V-91.88H261.4v38.4h12.8v-44.8a6.39,6.39,0,0,0-6.4-6.4h-320a6.4,6.4,0,0,0-6.4,6.4v339.2h-32a6.39,6.39,0,0,0-6.4,6.4,57.66,57.66,0,0,0,57.6,57.6h256a57.66,57.66,0,0,0,57.6-57.6V74.52H261.4Zm-300.8,44.8a44.87,44.87,0,0,1-44.35-38.4H159.36a57.53,57.53,0,0,0,21.16,38.4Zm0,0" transform="translate(97 104.68)"/><path class="cls-3" d="M139.8-34.28a32,32,0,0,0-32-32,32,32,0,0,0-32,32,32,32,0,0,0,32,32,32,32,0,0,0,32-32Zm-51.2,0a19.22,19.22,0,0,1,19.2-19.2A19.22,19.22,0,0,1,127-34.28a19.23,19.23,0,0,1-19.2,19.2,19.23,19.23,0,0,1-19.2-19.2Zm0,0" transform="translate(97 104.68)"/><rect class="cls-4" x="70.4" y="44.8" width="83.2" height="12.8"/><rect class="cls-4" x="70.4" y="70.4" width="83.2" height="12.8"/><g class="cls-5"><rect class="cls-4" x="70.4" y="96" width="83.2" height="12.8"/><path class="cls-3" d="M278.73-38.8a6.39,6.39,0,0,0-9.05,0L116.07,114.8a6.36,6.36,0,0,0-1.87,4.52v35.75L92.35,176.92H-20.2v12.8H120.6v-12.8H110.45l12.8-12.8H159a6.36,6.36,0,0,0,4.52-1.87L278.73,47a60.79,60.79,0,0,0,0-85.85ZM269.68,38,156.35,151.32h-20.3L265.93,21.45l-9.05-9.05L127,142.27V122L273.9-24.93A48,48,0,0,1,269.68,38Zm0,0" transform="translate(97 104.68)"/></g><rect class="cls-4" x="102.4" y="134.4" width="160" height="12.8"/><rect class="cls-4" x="76.8" y="160" width="160" height="12.8"/><rect class="cls-4" x="76.8" y="185.6" width="57.6" height="12.8"/><rect class="cls-4" x="147.2" y="185.6" width="70.4" height="12.8"/><rect class="cls-4" x="76.8" y="211.2" width="121.6" height="12.8"/><rect class="cls-4" x="230.4" y="307.2" width="96" height="12.8"/></svg>