<svg id="Layer_1" data-name="Layer 1" xmlns="http://www.w3.org/2000/svg" viewBox="0 0 409.6 409.6"><defs><style>.cls-1{fill:#5973b8;}.cls-2{fill:#75c591;}</style></defs><title>prodaja</title><path class="cls-1" d="M-92.2,291.8V279c201.34-1,337-46.31,369.32-78.63l-9.05-9.05c-23.64,23.64-112.93,56.16-246,69.19,59.53-18.77,112.43-51,154.53-92.81v9h12.8V163.8h-8.86C241.68,101.23,279,18.11,279-73H266.2c0,92.06-39.7,175.62-104,236.8H151V174C87.15,229.85,1.77,264.53-92.2,266V-105H-105V298.2a6.4,6.4,0,0,0,6.4,6.4H304.6V291.8Zm0,0" transform="translate(105 105)"/><path class="cls-2" d="M-65.89-34.6h-.71A6.4,6.4,0,0,0-73-28.2,44.67,44.67,0,0,0-57.81,5.33,6.3,6.3,0,0,0-60.2,10.2,44.85,44.85,0,0,0-15.4,55,67.67,67.67,0,0,0,30.51,37.13,63.87,63.87,0,0,0,80.6,61.4a63.86,63.86,0,0,0,50.09-24.27A67.67,67.67,0,0,0,176.6,55a44.85,44.85,0,0,0,44.8-44.8A6.3,6.3,0,0,0,219,5.33,44.66,44.66,0,0,0,234.2-28.2a6.4,6.4,0,0,0-6.4-6.4h-.71a44.64,44.64,0,0,0,13.51-32,6.4,6.4,0,0,0-6.4-6.4H176.6a67.77,67.77,0,0,0-48.23,20l-3.93,3.93A63.72,63.72,0,0,0,80.6-66.6,63.74,63.74,0,0,0,36.75-49.1L32.82-53A67.75,67.75,0,0,0-15.4-73H-73a6.4,6.4,0,0,0-6.4,6.4,44.63,44.63,0,0,0,13.51,32ZM176.6-60.2h50.55A32,32,0,0,1,195.8-34.6H176.6v12.8h44.15A32.06,32.06,0,0,1,189.4,3.8H163.8V16.6H208A32,32,0,0,1,176.6,42.2a55,55,0,0,1-38.93-16A63.58,63.58,0,0,0,144.6-2.6a63.57,63.57,0,0,0-11.74-36.81L137.42-44A55.07,55.07,0,0,1,176.6-60.2Zm-96,6.4A51.26,51.26,0,0,1,131.8-2.6,51.26,51.26,0,0,1,80.6,48.6,51.27,51.27,0,0,1,29.4-2.6,51.26,51.26,0,0,1,80.6-53.8Zm-96-6.4A55.06,55.06,0,0,1,23.78-44l4.55,4.56A63.59,63.59,0,0,0,16.6-2.6a63.52,63.52,0,0,0,6.92,28.8,55,55,0,0,1-38.92,16A32,32,0,0,1-46.75,16.6H-2.6V3.8H-28.2A32.05,32.05,0,0,1-59.56-21.8H-15.4V-34.6H-34.6A32,32,0,0,1-66-60.2Zm0,0" transform="translate(105 105)"/><path class="cls-1" d="M61.4,29.4H74.2v6.4H87V26.69A32,32,0,0,0,106.2-2.6,6.4,6.4,0,0,0,99.8-9H68.89A19.24,19.24,0,0,1,87-21.8h19.2v-6.4a6.4,6.4,0,0,0-6.4-6.4H87V-41H74.2v9.11A32,32,0,0,0,55-2.6a6.4,6.4,0,0,0,6.4,6.4H92.3A19.23,19.23,0,0,1,74.2,16.6H55V23a6.4,6.4,0,0,0,6.4,6.4Zm0,0" transform="translate(105 105)"/><path class="cls-2" d="M266.2,234.2a6.41,6.41,0,0,1,6.4,6.4h12.8a19.2,19.2,0,1,0-38.4,0v19.2a19.2,19.2,0,0,0,38.4,0H272.6a6.4,6.4,0,0,1-12.8,0V240.6a6.4,6.4,0,0,1,6.4-6.4Zm0,0" transform="translate(105 105)"/><path class="cls-2" d="M170.2,99.8A19.22,19.22,0,0,0,151,80.6H138.2a6.4,6.4,0,0,0-6.4,6.4v51.2h12.8V125.4L160,136.92a6.39,6.39,0,0,0,3.84,1.28h6.4V125.4h-4.27l-9.55-7.17A19.23,19.23,0,0,0,170.2,99.8ZM151,106.2h-6.4V93.4H151a6.4,6.4,0,0,1,0,12.8Zm0,0" transform="translate(105 105)"/><rect class="cls-1" x="25.6" y="268.8" width="12.8" height="12.8"/><rect class="cls-1" x="51.2" y="268.8" width="12.8" height="12.8"/><rect class="cls-1" x="76.8" y="268.8" width="12.8" height="12.8"/><rect class="cls-1" x="102.4" y="268.8" width="12.8" height="12.8"/><rect class="cls-1" x="128" y="268.8" width="12.8" height="12.8"/><rect class="cls-1" x="153.6" y="268.8" width="12.8" height="12.8"/><rect class="cls-1" x="179.2" y="268.8" width="12.8" height="12.8"/><rect class="cls-1" x="204.8" y="268.8" width="12.8" height="12.8"/><rect class="cls-1" x="230.4" y="268.8" width="12.8" height="12.8"/><rect class="cls-1" x="307.2" y="268.8" width="12.8" height="12.8"/><rect class="cls-1" x="332.8" y="268.8" width="12.8" height="12.8"/><rect class="cls-1" x="358.4" y="268.8" width="12.8" height="12.8"/><rect class="cls-1" x="384" y="268.8" width="12.8" height="12.8"/></svg>