<svg id="Layer_1" data-name="Layer 1" xmlns="http://www.w3.org/2000/svg" viewBox="0 0 74.94 91.45"><defs><style>.cls-1,.cls-2{fill:none;stroke:#5873b8;stroke-miterlimit:10;}.cls-2{stroke-width:2px;}.cls-3{fill:#5873b8;}.cls-4{fill:#46ec9c;}</style></defs><title>trening</title><path class="cls-1" d="M208.44,104.4c-.91-6-1.67-8.25-10-9.21-3.14-.36-11.7-1.24-14.88-3.06s-2.67-10.91-2.67-10.91H163.54s.51,9.09-2.67,10.91-11.73,2.7-14.88,3.06c-8.3,1-9.06,3.23-10,9.21a93.52,93.52,0,0,0-.76,11.21H209.2A93.41,93.41,0,0,0,208.44,104.4Z" transform="translate(-134.76 -24.66)"/><path class="cls-2" d="M191.8,58.52h-.39c.16-1.33.33-2.64.49-3.88.84-6.42,2.72-25.17-19.67-25.17s-20.51,18.75-19.67,25.17c.16,1.24.33,2.55.49,3.88h-.39c-3.41-2.52-3.69,4.06-2.27,6.31a13.73,13.73,0,0,1,1.91,4.12c.52,1.51,1.39,1.71,2.12,1.55.09.89.17,1.68.23,2.3.31,3.46,8.63,10.39,10.51,12.56s4.71,1.24,5.66,1.2l1.41-.07,1.41.07c.94,0,3.89.83,5.65-1.2s10.2-9.1,10.51-12.56c.06-.62.13-1.4.23-2.3.73.16,1.6,0,2.12-1.55a13.72,13.72,0,0,1,1.91-4.12C195.49,62.58,195.2,56,191.8,58.52Z" transform="translate(-134.76 -24.66)"/><path class="cls-3" d="M191,56.39c0,1.14-2,10.1-2.39,13-.65,5.43-4.54,8-5.68,9.2s-4.89,2.5-6.48,3.07a21.48,21.48,0,0,1-8.51,0c-1.59-.57-5.34-1.82-6.48-3.07s-5-3.77-5.68-9.2c-.34-2.86-2.39-11.82-2.39-13,0-.75-.37-.48-.59.4l.22,1.73s1.17,12,1.37,12c.09.89.17,1.68.23,2.3a3.65,3.65,0,0,0,.27,1c.42.66,1.08,1.73,1.91,3,2.68,3.32,7,7.08,8.33,8.57,1.77,2,4.71,1.24,5.66,1.2l1.41-.07,1.41.07c.94,0,3.89.83,5.65-1.2,1.3-1.49,5.65-5.25,8.33-8.57.83-1.28,1.49-2.35,1.91-3a3.67,3.67,0,0,0,.27-1c.06-.62.13-1.4.23-2.3.2,0,1.37-12,1.37-12l.22-1.73C191.4,55.91,191,55.64,191,56.39Z" transform="translate(-134.76 -24.66)"/><path class="cls-3" d="M178.17,75.57a13.4,13.4,0,0,0-5.94-2.88,13.4,13.4,0,0,0-5.94,2.88c-2.5,2.27,0,6.36,0,6.36l.55-.71c-2.7-5.47,5.39-5.8,5.39-5.8s8.09.33,5.39,5.8l.55.71S180.68,77.84,178.17,75.57Z" transform="translate(-134.76 -24.66)"/><path class="cls-4" d="M174.05,81.63a2.93,2.93,0,0,0-3.64,0c-.78.76-2.45.2-2.45.2l3.35,2.76.91-.91.91.91,3.35-2.76S174.84,82.39,174.05,81.63Z" transform="translate(-134.76 -24.66)"/><path class="cls-3" d="M188.19,24.66s.9,2.52-18.19,2.52h0c-.39,0-.82,0-1.29,0-18.27.8-17.27,18.19-17.27,18.19h0c-.14,4.37.77,8.75,1.61,13.11l.38-2.12a24,24,0,0,1,1-4.68c0-.14.1-.27.14-.41a20.67,20.67,0,0,1,.91-2.19c5-9.89,16.72-6.67,16.72-6.67S184,39.22,189,49.13a20.06,20.06,0,0,1,.89,2.14c.05.15.11.3.16.46a23.91,23.91,0,0,1,1,4.67l.38,2.13c.53-2.73,1.08-5.47,1.39-8.21v0A42.18,42.18,0,0,0,188.19,24.66Z" transform="translate(-134.76 -24.66)"/><path class="cls-4" d="M183.95,91c0-1.7-.78-3.08-3-3.08a38.51,38.51,0,0,1-8.68.74,65.75,65.75,0,0,1-8.79-.74c-2.2,0-3,1.38-3,3.08h0c0,1.7-.13,3.08,2.07,3.08,0,0,5.92.74,9.85.74a84.49,84.49,0,0,0,9.43-.74c2.2,0,2.07-1.38,2.07-3.08Z" transform="translate(-134.76 -24.66)"/><path class="cls-3" d="M208.44,104.4c-.91-6-1.67-8.25-10-9.21-3.09-.36-11.41-1.22-14.71-3-.23.6-.74,1.88-1.89,1.88a39.63,39.63,0,0,1-9.43,1.65,47,47,0,0,1-9.85-1.65c-1.15,0-1.66-1.28-1.89-1.88-3.3,1.76-11.62,2.62-14.71,3-8.3,1-9.06,3.23-10,9.21a93.52,93.52,0,0,0-.76,11.21H209.2A93.41,93.41,0,0,0,208.44,104.4Z" transform="translate(-134.76 -24.66)"/><path class="cls-4" d="M190,94h0a24.19,24.19,0,0,1-6.27-1.81c-.23.6-.74,1-1.89,1a84.55,84.55,0,0,1-9.43.74c-3.94,0-9.85-.74-9.85-.74-1.15,0-1.66-.38-1.89-1A24.22,24.22,0,0,1,154.43,94h0l17.8,19.33Z" transform="translate(-134.76 -24.66)"/></svg>